<svg xmlns="http://www.w3.org/2000/svg" xmlns:xlink="http://www.w3.org/1999/xlink" width="500" zoomAndPan="magnify" viewBox="0 0 375 262.499992" height="350" preserveAspectRatio="xMidYMid meet" version="1.0"><defs><g/><clipPath id="e68a45cfe3"><path d="M 31 14.304688 L 80 14.304688 L 80 248.828125 L 31 248.828125 Z M 31 14.304688 " clip-rule="nonzero"/></clipPath><clipPath id="8686555a46"><path d="M 73 86 L 96 86 L 96 109 L 73 109 Z M 73 86 " clip-rule="nonzero"/></clipPath><clipPath id="c37c94f68c"><path d="M 70.566406 90.207031 L 91.527344 83.476562 L 98.257812 104.4375 L 77.300781 111.167969 Z M 70.566406 90.207031 " clip-rule="nonzero"/></clipPath><clipPath id="6d2b0cb156"><path d="M 81.046875 86.84375 C 75.261719 88.703125 72.074219 94.898438 73.933594 100.6875 C 75.792969 106.476562 81.992188 109.660156 87.78125 107.800781 C 93.566406 105.941406 96.753906 99.746094 94.894531 93.957031 C 93.035156 88.167969 86.835938 84.984375 81.046875 86.84375 Z M 81.046875 86.84375 " clip-rule="nonzero"/></clipPath><clipPath id="b7f9b46539"><path d="M 81 116 L 100 116 L 100 136 L 81 136 Z M 81 116 " clip-rule="nonzero"/></clipPath><clipPath id="4476214191"><path d="M 78.722656 119.996094 L 96.339844 114.335938 L 102 131.957031 L 84.382812 137.613281 Z M 78.722656 119.996094 " clip-rule="nonzero"/></clipPath><clipPath id="a7f0163105"><path d="M 87.53125 117.167969 C 82.667969 118.730469 79.988281 123.941406 81.550781 128.804688 C 83.113281 133.671875 88.324219 136.347656 93.191406 134.785156 C 98.054688 133.222656 100.734375 128.011719 99.171875 123.148438 C 97.609375 118.28125 92.398438 115.605469 87.53125 117.167969 Z M 87.53125 117.167969 " clip-rule="nonzero"/></clipPath><clipPath id="29203b4807"><path d="M 84 143 L 100 143 L 100 159 L 84 159 Z M 84 143 " clip-rule="nonzero"/></clipPath><clipPath id="7d4c0daa77"><path d="M 82.613281 146.398438 L 96.585938 141.910156 L 101.074219 155.882812 L 87.097656 160.371094 Z M 82.613281 146.398438 " clip-rule="nonzero"/></clipPath><clipPath id="2dd7440f20"><path d="M 89.597656 144.15625 C 85.738281 145.394531 83.617188 149.527344 84.855469 153.386719 C 86.09375 157.242188 90.226562 159.367188 94.085938 158.128906 C 97.945312 156.886719 100.066406 152.753906 98.828125 148.898438 C 97.589844 145.039062 93.457031 142.914062 89.597656 144.15625 Z M 89.597656 144.15625 " clip-rule="nonzero"/></clipPath><clipPath id="9b276c6eef"><path d="M 84 167 L 96 167 L 96 179 L 84 179 Z M 84 167 " clip-rule="nonzero"/></clipPath><clipPath id="225b58965f"><path d="M 83.4375 169.175781 L 93.917969 165.808594 L 97.285156 176.289062 L 86.804688 179.652344 Z M 83.4375 169.175781 " clip-rule="nonzero"/></clipPath><clipPath id="6ff2e936bb"><path d="M 88.679688 167.492188 C 85.785156 168.421875 84.191406 171.519531 85.121094 174.414062 C 86.050781 177.308594 89.148438 178.902344 92.042969 177.972656 C 94.9375 177.042969 96.53125 173.941406 95.601562 171.046875 C 94.671875 168.15625 91.570312 166.5625 88.679688 167.492188 Z M 88.679688 167.492188 " clip-rule="nonzero"/></clipPath></defs><path fill="#e4b1a5" d="M 76.492188 58.871094 C 76.492188 65.890625 70.800781 71.582031 63.78125 71.582031 C 56.757812 71.582031 51.066406 65.890625 51.066406 58.871094 C 51.066406 51.847656 56.757812 46.15625 63.78125 46.15625 C 70.800781 46.15625 76.492188 51.847656 76.492188 58.871094 " fill-opacity="1" fill-rule="nonzero"/><path fill="#b2784a" d="M 15.984375 157.277344 C 22.402344 169.824219 39.800781 174.058594 55.621094 176.742188 C 54.027344 172.617188 52.292969 168.453125 50.417969 164.1875 C 49.566406 162.257812 48.675781 160.320312 47.757812 158.363281 C 27.03125 147.738281 37.128906 132.046875 48.265625 115.085938 C 82.832031 62.441406 140.785156 64.515625 140.785156 64.515625 C 77.410156 43.777344 0.363281 126.734375 15.984375 157.277344 Z M 79.074219 168.019531 C 80.285156 172.582031 81.328125 177.265625 82.164062 182.078125 C 97.460938 187.234375 115.011719 199.496094 118.378906 220.386719 C 118.433594 220.890625 130.085938 184.460938 79.074219 168.019531 " fill-opacity="1" fill-rule="nonzero"/><g clip-path="url(#e68a45cfe3)"><path fill="#e4b1a5" d="M 54.726562 113.449219 C 53.78125 114.765625 52.851562 116.105469 51.9375 117.496094 C 47.953125 123.558594 43.921875 129.734375 41.765625 135.292969 C 45.777344 144.445312 50.542969 153.585938 54.433594 162.417969 C 64.515625 185.320312 71.964844 207.816406 70.195312 239.332031 C 69.992188 243.054688 69.503906 248.757812 69.511719 248.761719 C 69.511719 248.761719 76.148438 237.652344 77.832031 228.285156 C 86.355469 180.917969 66.175781 145.839844 54.726562 113.449219 Z M 61.847656 14.371094 C 32.335938 32.859375 29.253906 73.609375 32.53125 101.542969 C 37.140625 96.378906 42.3125 91.359375 47.917969 86.65625 C 44.863281 65.875 44.0625 38.984375 61.847656 14.371094 " fill-opacity="1" fill-rule="nonzero"/></g><g clip-path="url(#8686555a46)"><g clip-path="url(#c37c94f68c)"><g clip-path="url(#6d2b0cb156)"><path fill="#764b36" d="M 70.566406 90.207031 L 91.527344 83.476562 L 98.257812 104.4375 L 77.300781 111.167969 Z M 70.566406 90.207031 " fill-opacity="1" fill-rule="nonzero"/></g></g></g><g clip-path="url(#b7f9b46539)"><g clip-path="url(#4476214191)"><g clip-path="url(#a7f0163105)"><path fill="#b2784a" d="M 78.722656 119.996094 L 96.339844 114.335938 L 102 131.957031 L 84.382812 137.613281 Z M 78.722656 119.996094 " fill-opacity="1" fill-rule="nonzero"/></g></g></g><g clip-path="url(#29203b4807)"><g clip-path="url(#7d4c0daa77)"><g clip-path="url(#2dd7440f20)"><path fill="#d8a790" d="M 82.613281 146.398438 L 96.585938 141.910156 L 101.074219 155.882812 L 87.097656 160.371094 Z M 82.613281 146.398438 " fill-opacity="1" fill-rule="nonzero"/></g></g></g><g clip-path="url(#9b276c6eef)"><g clip-path="url(#225b58965f)"><g clip-path="url(#6ff2e936bb)"><path fill="#e4b1a5" d="M 83.4375 169.175781 L 93.917969 165.808594 L 97.285156 176.289062 L 86.804688 179.652344 Z M 83.4375 169.175781 " fill-opacity="1" fill-rule="nonzero"/></g></g></g><g fill="#ebdacc" fill-opacity="1"><g transform="translate(151.270601, 108.420017)"><g><path d="M 26.421875 -5.28125 C 26.421875 -4.445312 26.457031 -3.773438 26.53125 -3.265625 C 26.613281 -2.753906 26.78125 -2.359375 27.03125 -2.078125 C 27.28125 -1.804688 27.628906 -1.613281 28.078125 -1.5 C 28.523438 -1.394531 29.125 -1.332031 29.875 -1.3125 L 29.875 0 L 17.828125 0 L 17.828125 -1.3125 C 18.640625 -1.332031 19.289062 -1.394531 19.78125 -1.5 C 20.269531 -1.613281 20.648438 -1.800781 20.921875 -2.0625 C 21.203125 -2.332031 21.382812 -2.707031 21.46875 -3.1875 C 21.550781 -3.664062 21.59375 -4.289062 21.59375 -5.0625 L 21.59375 -11.921875 L 9.421875 -11.921875 L 9.421875 -5.28125 C 9.421875 -4.445312 9.460938 -3.773438 9.546875 -3.265625 C 9.640625 -2.753906 9.816406 -2.359375 10.078125 -2.078125 C 10.335938 -1.804688 10.710938 -1.613281 11.203125 -1.5 C 11.703125 -1.394531 12.359375 -1.332031 13.171875 -1.3125 L 13.171875 0 L 1.15625 0 L 1.15625 -1.3125 C 1.894531 -1.332031 2.488281 -1.394531 2.9375 -1.5 C 3.382812 -1.613281 3.726562 -1.800781 3.96875 -2.0625 C 4.207031 -2.332031 4.367188 -2.707031 4.453125 -3.1875 C 4.546875 -3.664062 4.59375 -4.289062 4.59375 -5.0625 L 4.59375 -20.21875 C 4.59375 -20.988281 4.550781 -21.609375 4.46875 -22.078125 C 4.394531 -22.546875 4.25 -22.914062 4.03125 -23.1875 C 3.8125 -23.46875 3.5 -23.65625 3.09375 -23.75 C 2.695312 -23.851562 2.171875 -23.925781 1.515625 -23.96875 L 1.515625 -25.28125 L 12.828125 -25.28125 L 12.828125 -23.96875 C 12.085938 -23.945312 11.492188 -23.878906 11.046875 -23.765625 C 10.597656 -23.660156 10.253906 -23.460938 10.015625 -23.171875 C 9.773438 -22.890625 9.613281 -22.492188 9.53125 -21.984375 C 9.457031 -21.484375 9.421875 -20.820312 9.421875 -20 L 9.421875 -13.953125 L 21.59375 -13.953125 L 21.59375 -20.21875 C 21.59375 -20.988281 21.550781 -21.609375 21.46875 -22.078125 C 21.382812 -22.546875 21.21875 -22.914062 20.96875 -23.1875 C 20.726562 -23.46875 20.382812 -23.65625 19.9375 -23.75 C 19.488281 -23.851562 18.894531 -23.925781 18.15625 -23.96875 L 18.15625 -25.28125 L 29.515625 -25.28125 L 29.515625 -23.96875 C 28.859375 -23.945312 28.328125 -23.878906 27.921875 -23.765625 C 27.515625 -23.660156 27.203125 -23.460938 26.984375 -23.171875 C 26.765625 -22.890625 26.613281 -22.492188 26.53125 -21.984375 C 26.457031 -21.484375 26.421875 -20.820312 26.421875 -20 Z M 26.421875 -5.28125 "/></g></g></g><g fill="#ebdacc" fill-opacity="1"><g transform="translate(182.280745, 108.420017)"><g><path d="M 9.421875 -13.984375 C 10.816406 -13.984375 11.941406 -14.023438 12.796875 -14.109375 C 13.648438 -14.203125 14.3125 -14.382812 14.78125 -14.65625 C 15.257812 -14.925781 15.59375 -15.320312 15.78125 -15.84375 C 15.976562 -16.375 16.132812 -17.085938 16.25 -17.984375 L 17.46875 -17.984375 L 17.46875 -8.375 L 16.25 -8.375 C 16.113281 -9.25 15.9375 -9.945312 15.71875 -10.46875 C 15.5 -11 15.148438 -11.398438 14.671875 -11.671875 C 14.191406 -11.941406 13.539062 -12.113281 12.71875 -12.1875 C 11.894531 -12.269531 10.796875 -12.3125 9.421875 -12.3125 L 9.421875 -5.546875 C 9.421875 -4.847656 9.515625 -4.253906 9.703125 -3.765625 C 9.890625 -3.285156 10.203125 -2.898438 10.640625 -2.609375 C 11.078125 -2.316406 11.65625 -2.109375 12.375 -1.984375 C 13.09375 -1.867188 13.976562 -1.8125 15.03125 -1.8125 C 16.28125 -1.8125 17.335938 -1.894531 18.203125 -2.0625 C 19.066406 -2.238281 19.78125 -2.546875 20.34375 -2.984375 C 20.914062 -3.421875 21.375 -4.003906 21.71875 -4.734375 C 22.070312 -5.472656 22.375 -6.398438 22.625 -7.515625 L 23.9375 -7.515625 L 23.40625 0 L 1.15625 0 L 1.15625 -1.3125 C 1.875 -1.332031 2.460938 -1.394531 2.921875 -1.5 C 3.378906 -1.613281 3.726562 -1.800781 3.96875 -2.0625 C 4.207031 -2.332031 4.367188 -2.707031 4.453125 -3.1875 C 4.546875 -3.664062 4.59375 -4.289062 4.59375 -5.0625 L 4.59375 -20.21875 C 4.59375 -20.988281 4.550781 -21.609375 4.46875 -22.078125 C 4.394531 -22.546875 4.25 -22.914062 4.03125 -23.1875 C 3.8125 -23.46875 3.5 -23.65625 3.09375 -23.75 C 2.695312 -23.851562 2.171875 -23.925781 1.515625 -23.96875 L 1.515625 -25.28125 L 22.25 -25.28125 L 22.484375 -18.84375 L 21.078125 -18.84375 C 20.941406 -19.757812 20.734375 -20.519531 20.453125 -21.125 C 20.171875 -21.726562 19.773438 -22.207031 19.265625 -22.5625 C 18.765625 -22.925781 18.113281 -23.175781 17.3125 -23.3125 C 16.519531 -23.457031 15.539062 -23.53125 14.375 -23.53125 L 10.671875 -23.53125 C 10.097656 -23.53125 9.742188 -23.457031 9.609375 -23.3125 C 9.484375 -23.175781 9.421875 -22.847656 9.421875 -22.328125 Z M 9.421875 -13.984375 "/></g></g></g><g fill="#ebdacc" fill-opacity="1"><g transform="translate(207.351383, 108.420017)"><g><path d="M 22 0.328125 L 7.453125 -20.390625 L 7.328125 -20.390625 L 7.328125 -6.265625 C 7.328125 -5.171875 7.363281 -4.304688 7.4375 -3.671875 C 7.507812 -3.035156 7.671875 -2.539062 7.921875 -2.1875 C 8.179688 -1.84375 8.535156 -1.613281 8.984375 -1.5 C 9.429688 -1.394531 10.015625 -1.332031 10.734375 -1.3125 L 10.734375 0 L 0.984375 0 L 0.984375 -1.3125 C 1.796875 -1.332031 2.445312 -1.398438 2.9375 -1.515625 C 3.425781 -1.640625 3.804688 -1.863281 4.078125 -2.1875 C 4.359375 -2.519531 4.539062 -2.988281 4.625 -3.59375 C 4.71875 -4.195312 4.765625 -5.015625 4.765625 -6.046875 L 4.765625 -19.234375 C 4.765625 -20.148438 4.71875 -20.910156 4.625 -21.515625 C 4.539062 -22.117188 4.378906 -22.59375 4.140625 -22.9375 C 3.898438 -23.289062 3.550781 -23.539062 3.09375 -23.6875 C 2.644531 -23.832031 2.050781 -23.925781 1.3125 -23.96875 L 1.3125 -25.28125 L 10.46875 -25.28125 L 23.703125 -6.296875 L 23.828125 -6.296875 L 23.828125 -19 C 23.828125 -20.070312 23.789062 -20.929688 23.71875 -21.578125 C 23.644531 -22.222656 23.476562 -22.722656 23.21875 -23.078125 C 22.96875 -23.429688 22.617188 -23.660156 22.171875 -23.765625 C 21.722656 -23.878906 21.140625 -23.945312 20.421875 -23.96875 L 20.421875 -25.28125 L 30.171875 -25.28125 L 30.171875 -23.96875 C 29.359375 -23.945312 28.707031 -23.875 28.21875 -23.75 C 27.726562 -23.632812 27.34375 -23.410156 27.0625 -23.078125 C 26.789062 -22.742188 26.609375 -22.269531 26.515625 -21.65625 C 26.429688 -21.050781 26.390625 -20.242188 26.390625 -19.234375 L 26.390625 0.328125 Z M 22 0.328125 "/></g></g></g><g fill="#ebdacc" fill-opacity="1"><g transform="translate(238.197451, 108.420017)"><g><path d="M 22.8125 -18.9375 C 22.8125 -17.125 22.285156 -15.601562 21.234375 -14.375 C 20.179688 -13.15625 18.507812 -12.335938 16.21875 -11.921875 L 23.828125 -3.1875 C 24.359375 -2.570312 24.984375 -2.101562 25.703125 -1.78125 C 26.421875 -1.46875 27.15625 -1.3125 27.90625 -1.3125 L 27.90625 0 L 20.125 0 L 11.984375 -9.984375 C 11.429688 -10.640625 10.953125 -11.082031 10.546875 -11.3125 C 10.148438 -11.539062 9.773438 -11.65625 9.421875 -11.65625 L 9.421875 -5.21875 C 9.421875 -4.40625 9.472656 -3.742188 9.578125 -3.234375 C 9.691406 -2.722656 9.910156 -2.320312 10.234375 -2.03125 C 10.566406 -1.75 11.046875 -1.554688 11.671875 -1.453125 C 12.296875 -1.359375 13.132812 -1.3125 14.1875 -1.3125 L 14.1875 0 L 1.15625 0 L 1.15625 -1.3125 C 1.875 -1.3125 2.457031 -1.359375 2.90625 -1.453125 C 3.351562 -1.554688 3.703125 -1.742188 3.953125 -2.015625 C 4.203125 -2.285156 4.367188 -2.664062 4.453125 -3.15625 C 4.546875 -3.65625 4.59375 -4.289062 4.59375 -5.0625 L 4.59375 -20.21875 C 4.59375 -20.988281 4.5625 -21.609375 4.5 -22.078125 C 4.4375 -22.546875 4.296875 -22.914062 4.078125 -23.1875 C 3.859375 -23.46875 3.546875 -23.65625 3.140625 -23.75 C 2.734375 -23.851562 2.191406 -23.925781 1.515625 -23.96875 L 1.515625 -25.28125 L 12.875 -25.28125 C 16.039062 -25.28125 18.488281 -24.71875 20.21875 -23.59375 C 21.945312 -22.476562 22.8125 -20.925781 22.8125 -18.9375 Z M 9.421875 -13.625 L 11.5625 -13.625 C 13.613281 -13.625 15.144531 -14.019531 16.15625 -14.8125 C 17.175781 -15.613281 17.6875 -16.9375 17.6875 -18.78125 C 17.6875 -20.175781 17.257812 -21.300781 16.40625 -22.15625 C 15.5625 -23.007812 14.382812 -23.4375 12.875 -23.4375 L 10.015625 -23.4375 C 9.617188 -23.4375 9.421875 -23.25 9.421875 -22.875 Z M 9.421875 -13.625 "/></g></g></g><g fill="#ebdacc" fill-opacity="1"><g transform="translate(264.941648, 108.420017)"><g><path d="M 12.90625 0 L 1.1875 0 L 1.1875 -1.3125 C 1.925781 -1.332031 2.519531 -1.398438 2.96875 -1.515625 C 3.414062 -1.640625 3.757812 -1.863281 4 -2.1875 C 4.238281 -2.519531 4.398438 -2.988281 4.484375 -3.59375 C 4.578125 -4.195312 4.625 -5.015625 4.625 -6.046875 L 4.625 -19.234375 C 4.625 -20.148438 4.585938 -20.910156 4.515625 -21.515625 C 4.441406 -22.117188 4.296875 -22.59375 4.078125 -22.9375 C 3.859375 -23.289062 3.546875 -23.539062 3.140625 -23.6875 C 2.734375 -23.832031 2.191406 -23.925781 1.515625 -23.96875 L 1.515625 -25.28125 L 12.578125 -25.28125 L 12.578125 -23.96875 C 11.898438 -23.925781 11.359375 -23.832031 10.953125 -23.6875 C 10.546875 -23.539062 10.234375 -23.289062 10.015625 -22.9375 C 9.796875 -22.59375 9.644531 -22.117188 9.5625 -21.515625 C 9.488281 -20.910156 9.453125 -20.148438 9.453125 -19.234375 L 9.453125 -6.046875 C 9.453125 -5.015625 9.488281 -4.195312 9.5625 -3.59375 C 9.644531 -2.988281 9.8125 -2.519531 10.0625 -2.1875 C 10.3125 -1.863281 10.660156 -1.640625 11.109375 -1.515625 C 11.554688 -1.398438 12.15625 -1.332031 12.90625 -1.3125 Z M 12.90625 0 "/></g></g></g><g fill="#ebdacc" fill-opacity="1"><g transform="translate(279.019266, 108.420017)"><g><path d="M 15.46875 -25.609375 C 17.457031 -25.609375 19.316406 -25.269531 21.046875 -24.59375 C 22.773438 -23.914062 24.28125 -22.976562 25.5625 -21.78125 C 26.84375 -20.59375 27.847656 -19.191406 28.578125 -17.578125 C 29.304688 -15.972656 29.671875 -14.25 29.671875 -12.40625 C 29.671875 -10.15625 29.117188 -8.082031 28.015625 -6.1875 C 26.910156 -4.289062 25.363281 -2.695312 23.375 -1.40625 C 23 -1.164062 22.640625 -0.953125 22.296875 -0.765625 C 21.960938 -0.585938 21.578125 -0.398438 21.140625 -0.203125 C 20.703125 -0.00390625 20.191406 0.203125 19.609375 0.421875 C 19.035156 0.640625 18.34375 0.894531 17.53125 1.1875 C 17.050781 1.351562 16.640625 1.503906 16.296875 1.640625 C 15.960938 1.773438 15.660156 1.898438 15.390625 2.015625 C 15.128906 2.140625 14.894531 2.257812 14.6875 2.375 C 14.476562 2.5 14.273438 2.625 14.078125 2.75 L 14.078125 2.890625 C 14.234375 2.867188 14.429688 2.851562 14.671875 2.84375 C 14.910156 2.832031 15.140625 2.828125 15.359375 2.828125 C 16.304688 2.828125 17.195312 2.929688 18.03125 3.140625 C 18.875 3.347656 19.707031 3.570312 20.53125 3.8125 C 21.351562 4.050781 22.179688 4.273438 23.015625 4.484375 C 23.847656 4.691406 24.722656 4.796875 25.640625 4.796875 C 26.691406 4.796875 27.507812 4.609375 28.09375 4.234375 C 28.6875 3.859375 29.148438 3.234375 29.484375 2.359375 L 30.6875 2.359375 C 30.738281 2.648438 30.773438 2.914062 30.796875 3.15625 C 30.816406 3.394531 30.828125 3.601562 30.828125 3.78125 C 30.828125 4.457031 30.671875 5.082031 30.359375 5.65625 C 30.054688 6.238281 29.628906 6.742188 29.078125 7.171875 C 28.535156 7.597656 27.890625 7.929688 27.140625 8.171875 C 26.398438 8.410156 25.601562 8.53125 24.75 8.53125 C 23.519531 8.53125 22.378906 8.320312 21.328125 7.90625 C 20.285156 7.488281 19.28125 7.03125 18.3125 6.53125 C 17.351562 6.03125 16.4375 5.570312 15.5625 5.15625 C 14.6875 4.738281 13.820312 4.53125 12.96875 4.53125 C 12.375 4.53125 11.890625 4.628906 11.515625 4.828125 C 11.148438 5.023438 10.816406 5.238281 10.515625 5.46875 C 10.222656 5.695312 9.925781 5.910156 9.625 6.109375 C 9.332031 6.304688 8.976562 6.40625 8.5625 6.40625 C 8.195312 6.40625 7.90625 6.316406 7.6875 6.140625 C 7.46875 5.960938 7.359375 5.742188 7.359375 5.484375 C 7.359375 5.109375 7.523438 4.757812 7.859375 4.4375 C 8.203125 4.125 8.832031 3.71875 9.75 3.21875 L 13.890625 0.890625 C 12.140625 0.734375 10.507812 0.285156 9 -0.453125 C 7.488281 -1.203125 6.179688 -2.164062 5.078125 -3.34375 C 3.972656 -4.53125 3.101562 -5.894531 2.46875 -7.4375 C 1.832031 -8.976562 1.515625 -10.625 1.515625 -12.375 C 1.515625 -14.238281 1.867188 -15.976562 2.578125 -17.59375 C 3.285156 -19.21875 4.265625 -20.617188 5.515625 -21.796875 C 6.765625 -22.984375 8.238281 -23.914062 9.9375 -24.59375 C 11.644531 -25.269531 13.488281 -25.609375 15.46875 -25.609375 Z M 15.46875 -0.984375 C 16.757812 -0.984375 17.925781 -1.25 18.96875 -1.78125 C 20.019531 -2.320312 20.910156 -3.082031 21.640625 -4.0625 C 22.378906 -5.050781 22.953125 -6.242188 23.359375 -7.640625 C 23.765625 -9.046875 23.96875 -10.601562 23.96875 -12.3125 C 23.96875 -14.019531 23.765625 -15.5625 23.359375 -16.9375 C 22.953125 -18.3125 22.378906 -19.476562 21.640625 -20.4375 C 20.910156 -21.40625 20.019531 -22.148438 18.96875 -22.671875 C 17.925781 -23.203125 16.757812 -23.46875 15.46875 -23.46875 C 14.175781 -23.46875 13.019531 -23.207031 12 -22.6875 C 10.976562 -22.175781 10.117188 -21.441406 9.421875 -20.484375 C 8.722656 -19.523438 8.179688 -18.351562 7.796875 -16.96875 C 7.410156 -15.59375 7.21875 -14.039062 7.21875 -12.3125 C 7.21875 -10.5625 7.410156 -8.984375 7.796875 -7.578125 C 8.179688 -6.179688 8.726562 -4.992188 9.4375 -4.015625 C 10.144531 -3.046875 11.007812 -2.296875 12.03125 -1.765625 C 13.050781 -1.242188 14.195312 -0.984375 15.46875 -0.984375 Z M 15.46875 -0.984375 "/></g></g></g><g fill="#ebdacc" fill-opacity="1"><g transform="translate(310.160671, 108.420017)"><g><path d="M 24.84375 -10.171875 C 24.84375 -8.316406 24.640625 -6.726562 24.234375 -5.40625 C 23.835938 -4.082031 23.210938 -2.992188 22.359375 -2.140625 C 21.503906 -1.285156 20.398438 -0.660156 19.046875 -0.265625 C 17.703125 0.128906 16.09375 0.328125 14.21875 0.328125 C 10.6875 0.328125 8.101562 -0.410156 6.46875 -1.890625 C 4.84375 -3.367188 4.03125 -5.726562 4.03125 -8.96875 L 4.03125 -17.953125 C 4.03125 -18.804688 4.019531 -19.523438 4 -20.109375 C 3.976562 -20.691406 3.945312 -21.175781 3.90625 -21.5625 C 3.863281 -21.957031 3.800781 -22.28125 3.71875 -22.53125 C 3.644531 -22.78125 3.554688 -22.992188 3.453125 -23.171875 C 3.253906 -23.484375 2.96875 -23.691406 2.59375 -23.796875 C 2.21875 -23.910156 1.648438 -23.96875 0.890625 -23.96875 L 0.890625 -25.28125 L 12.671875 -25.28125 L 12.671875 -23.96875 C 11.753906 -23.96875 11.078125 -23.914062 10.640625 -23.8125 C 10.203125 -23.71875 9.863281 -23.53125 9.625 -23.25 C 9.46875 -23.070312 9.335938 -22.851562 9.234375 -22.59375 C 9.140625 -22.34375 9.0625 -22.015625 9 -21.609375 C 8.945312 -21.210938 8.910156 -20.71875 8.890625 -20.125 C 8.867188 -19.53125 8.859375 -18.804688 8.859375 -17.953125 L 8.859375 -9.359375 C 8.859375 -6.859375 9.390625 -5.007812 10.453125 -3.8125 C 11.515625 -2.625 13.148438 -2.03125 15.359375 -2.03125 C 19.867188 -2.03125 22.125 -4.535156 22.125 -9.546875 L 22.125 -17.140625 C 22.125 -18.054688 22.109375 -18.84375 22.078125 -19.5 C 22.046875 -20.15625 21.988281 -20.710938 21.90625 -21.171875 C 21.832031 -21.628906 21.734375 -22.007812 21.609375 -22.3125 C 21.492188 -22.625 21.347656 -22.878906 21.171875 -23.078125 C 20.867188 -23.378906 20.472656 -23.601562 19.984375 -23.75 C 19.503906 -23.894531 18.835938 -23.96875 17.984375 -23.96875 L 17.984375 -25.28125 L 28.625 -25.28125 L 28.625 -23.96875 C 27.8125 -23.96875 27.1875 -23.90625 26.75 -23.78125 C 26.3125 -23.664062 25.972656 -23.453125 25.734375 -23.140625 C 25.554688 -22.941406 25.410156 -22.679688 25.296875 -22.359375 C 25.191406 -22.046875 25.109375 -21.65625 25.046875 -21.1875 C 24.984375 -20.71875 24.929688 -20.15625 24.890625 -19.5 C 24.859375 -18.84375 24.84375 -18.054688 24.84375 -17.140625 Z M 24.84375 -10.171875 "/></g></g></g><g fill="#ebdacc" fill-opacity="1"><g transform="translate(339.037842, 108.420017)"><g><path d="M 9.421875 -13.984375 C 10.816406 -13.984375 11.941406 -14.023438 12.796875 -14.109375 C 13.648438 -14.203125 14.3125 -14.382812 14.78125 -14.65625 C 15.257812 -14.925781 15.59375 -15.320312 15.78125 -15.84375 C 15.976562 -16.375 16.132812 -17.085938 16.25 -17.984375 L 17.46875 -17.984375 L 17.46875 -8.375 L 16.25 -8.375 C 16.113281 -9.25 15.9375 -9.945312 15.71875 -10.46875 C 15.5 -11 15.148438 -11.398438 14.671875 -11.671875 C 14.191406 -11.941406 13.539062 -12.113281 12.71875 -12.1875 C 11.894531 -12.269531 10.796875 -12.3125 9.421875 -12.3125 L 9.421875 -5.546875 C 9.421875 -4.847656 9.515625 -4.253906 9.703125 -3.765625 C 9.890625 -3.285156 10.203125 -2.898438 10.640625 -2.609375 C 11.078125 -2.316406 11.65625 -2.109375 12.375 -1.984375 C 13.09375 -1.867188 13.976562 -1.8125 15.03125 -1.8125 C 16.28125 -1.8125 17.335938 -1.894531 18.203125 -2.0625 C 19.066406 -2.238281 19.78125 -2.546875 20.34375 -2.984375 C 20.914062 -3.421875 21.375 -4.003906 21.71875 -4.734375 C 22.070312 -5.472656 22.375 -6.398438 22.625 -7.515625 L 23.9375 -7.515625 L 23.40625 0 L 1.15625 0 L 1.15625 -1.3125 C 1.875 -1.332031 2.460938 -1.394531 2.921875 -1.5 C 3.378906 -1.613281 3.726562 -1.800781 3.96875 -2.0625 C 4.207031 -2.332031 4.367188 -2.707031 4.453125 -3.1875 C 4.546875 -3.664062 4.59375 -4.289062 4.59375 -5.0625 L 4.59375 -20.21875 C 4.59375 -20.988281 4.550781 -21.609375 4.46875 -22.078125 C 4.394531 -22.546875 4.25 -22.914062 4.03125 -23.1875 C 3.8125 -23.46875 3.5 -23.65625 3.09375 -23.75 C 2.695312 -23.851562 2.171875 -23.925781 1.515625 -23.96875 L 1.515625 -25.28125 L 22.25 -25.28125 L 22.484375 -18.84375 L 21.078125 -18.84375 C 20.941406 -19.757812 20.734375 -20.519531 20.453125 -21.125 C 20.171875 -21.726562 19.773438 -22.207031 19.265625 -22.5625 C 18.765625 -22.925781 18.113281 -23.175781 17.3125 -23.3125 C 16.519531 -23.457031 15.539062 -23.53125 14.375 -23.53125 L 10.671875 -23.53125 C 10.097656 -23.53125 9.742188 -23.457031 9.609375 -23.3125 C 9.484375 -23.175781 9.421875 -22.847656 9.421875 -22.328125 Z M 9.421875 -13.984375 "/></g></g></g><g fill="#ebdacc" fill-opacity="1"><g transform="translate(196.581271, 154.152096)"><g><path d="M 19.078125 -6.140625 L 26.65625 -25.28125 L 36.25 -25.28125 L 36.25 -23.96875 C 35.519531 -23.96875 34.929688 -23.894531 34.484375 -23.75 C 34.035156 -23.601562 33.691406 -23.34375 33.453125 -22.96875 C 33.210938 -22.601562 33.050781 -22.097656 32.96875 -21.453125 C 32.894531 -20.804688 32.859375 -19.988281 32.859375 -19 L 32.859375 -6.265625 C 32.859375 -5.171875 32.898438 -4.304688 32.984375 -3.671875 C 33.078125 -3.035156 33.253906 -2.539062 33.515625 -2.1875 C 33.773438 -1.84375 34.148438 -1.613281 34.640625 -1.5 C 35.140625 -1.394531 35.796875 -1.332031 36.609375 -1.3125 L 36.609375 0 L 24.265625 0 L 24.265625 -1.3125 C 25.066406 -1.332031 25.710938 -1.398438 26.203125 -1.515625 C 26.703125 -1.640625 27.085938 -1.863281 27.359375 -2.1875 C 27.628906 -2.519531 27.804688 -2.988281 27.890625 -3.59375 C 27.984375 -4.195312 28.03125 -5.015625 28.03125 -6.046875 L 28.03125 -21.40625 L 27.875 -21.40625 L 19.046875 0.328125 L 16.609375 0.328125 L 7.484375 -21.40625 L 7.359375 -21.40625 L 7.359375 -6.265625 C 7.359375 -5.171875 7.398438 -4.304688 7.484375 -3.671875 C 7.566406 -3.035156 7.738281 -2.539062 8 -2.1875 C 8.269531 -1.84375 8.648438 -1.613281 9.140625 -1.5 C 9.628906 -1.394531 10.28125 -1.332031 11.09375 -1.3125 L 11.09375 0 L 0.984375 0 L 0.984375 -1.3125 C 1.796875 -1.332031 2.453125 -1.398438 2.953125 -1.515625 C 3.453125 -1.640625 3.835938 -1.863281 4.109375 -2.1875 C 4.390625 -2.519531 4.570312 -2.988281 4.65625 -3.59375 C 4.75 -4.195312 4.796875 -5.015625 4.796875 -6.046875 L 4.796875 -19.234375 C 4.796875 -20.148438 4.75 -20.914062 4.65625 -21.53125 C 4.570312 -22.144531 4.410156 -22.628906 4.171875 -22.984375 C 3.929688 -23.347656 3.585938 -23.601562 3.140625 -23.75 C 2.691406 -23.894531 2.09375 -23.96875 1.34375 -23.96875 L 1.34375 -25.28125 L 11.296875 -25.28125 L 18.9375 -6.140625 Z M 19.078125 -6.140625 "/></g></g></g><g fill="#ebdacc" fill-opacity="1"><g transform="translate(234.154411, 154.152096)"><g><path d="M 15.5 -25.609375 C 17.46875 -25.609375 19.304688 -25.269531 21.015625 -24.59375 C 22.722656 -23.914062 24.203125 -22.984375 25.453125 -21.796875 C 26.710938 -20.617188 27.703125 -19.226562 28.421875 -17.625 C 29.148438 -16.03125 29.515625 -14.300781 29.515625 -12.4375 C 29.515625 -10.664062 29.144531 -9.003906 28.40625 -7.453125 C 27.675781 -5.898438 26.679688 -4.546875 25.421875 -3.390625 C 24.160156 -2.242188 22.675781 -1.335938 20.96875 -0.671875 C 19.269531 -0.00390625 17.445312 0.328125 15.5 0.328125 C 13.550781 0.328125 11.722656 -0.00390625 10.015625 -0.671875 C 8.304688 -1.335938 6.816406 -2.242188 5.546875 -3.390625 C 4.273438 -4.546875 3.28125 -5.898438 2.5625 -7.453125 C 1.84375 -9.003906 1.484375 -10.664062 1.484375 -12.4375 C 1.484375 -14.300781 1.84375 -16.03125 2.5625 -17.625 C 3.28125 -19.226562 4.269531 -20.617188 5.53125 -21.796875 C 6.789062 -22.984375 8.273438 -23.914062 9.984375 -24.59375 C 11.691406 -25.269531 13.53125 -25.609375 15.5 -25.609375 Z M 15.5 -1.8125 C 16.769531 -1.8125 17.914062 -2.054688 18.9375 -2.546875 C 19.96875 -3.035156 20.84375 -3.734375 21.5625 -4.640625 C 22.289062 -5.546875 22.84375 -6.648438 23.21875 -7.953125 C 23.601562 -9.265625 23.796875 -10.726562 23.796875 -12.34375 C 23.796875 -14.050781 23.601562 -15.585938 23.21875 -16.953125 C 22.84375 -18.316406 22.289062 -19.484375 21.5625 -20.453125 C 20.84375 -21.429688 19.96875 -22.175781 18.9375 -22.6875 C 17.914062 -23.207031 16.769531 -23.46875 15.5 -23.46875 C 14.207031 -23.46875 13.050781 -23.207031 12.03125 -22.6875 C 11.007812 -22.175781 10.140625 -21.429688 9.421875 -20.453125 C 8.703125 -19.484375 8.148438 -18.316406 7.765625 -16.953125 C 7.378906 -15.585938 7.1875 -14.050781 7.1875 -12.34375 C 7.1875 -10.726562 7.378906 -9.265625 7.765625 -7.953125 C 8.148438 -6.648438 8.703125 -5.546875 9.421875 -4.640625 C 10.140625 -3.734375 11.007812 -3.035156 12.03125 -2.546875 C 13.050781 -2.054688 14.207031 -1.8125 15.5 -1.8125 Z M 15.5 -1.8125 "/></g></g></g><g fill="#ebdacc" fill-opacity="1"><g transform="translate(265.098925, 154.152096)"><g><path d="M 26.75 -18.0625 L 25.34375 -18.0625 C 25.28125 -19.125 25.117188 -20.007812 24.859375 -20.71875 C 24.609375 -21.4375 24.253906 -22.007812 23.796875 -22.4375 C 23.335938 -22.863281 22.78125 -23.160156 22.125 -23.328125 C 21.46875 -23.492188 20.703125 -23.578125 19.828125 -23.578125 C 18.972656 -23.578125 18.285156 -23.554688 17.765625 -23.515625 C 17.253906 -23.484375 16.863281 -23.429688 16.59375 -23.359375 C 16.320312 -23.285156 16.140625 -23.179688 16.046875 -23.046875 C 15.960938 -22.910156 15.921875 -22.742188 15.921875 -22.546875 L 15.921875 -5.34375 C 15.921875 -4.644531 15.96875 -4.046875 16.0625 -3.546875 C 16.164062 -3.046875 16.367188 -2.632812 16.671875 -2.3125 C 16.984375 -2 17.429688 -1.757812 18.015625 -1.59375 C 18.609375 -1.425781 19.390625 -1.332031 20.359375 -1.3125 L 20.359375 0 L 6.59375 0 L 6.59375 -1.3125 C 7.582031 -1.332031 8.367188 -1.425781 8.953125 -1.59375 C 9.546875 -1.757812 10 -2 10.3125 -2.3125 C 10.632812 -2.632812 10.84375 -3.046875 10.9375 -3.546875 C 11.039062 -4.046875 11.09375 -4.644531 11.09375 -5.34375 L 11.09375 -22.546875 C 11.09375 -22.742188 11.050781 -22.910156 10.96875 -23.046875 C 10.894531 -23.179688 10.738281 -23.285156 10.5 -23.359375 C 10.257812 -23.429688 9.914062 -23.484375 9.46875 -23.515625 C 9.019531 -23.554688 8.4375 -23.578125 7.71875 -23.578125 C 6.925781 -23.578125 6.164062 -23.535156 5.4375 -23.453125 C 4.71875 -23.378906 4.082031 -23.160156 3.53125 -22.796875 C 2.988281 -22.429688 2.546875 -21.882812 2.203125 -21.15625 C 1.867188 -20.425781 1.691406 -19.394531 1.671875 -18.0625 L 0.390625 -18.0625 L 0.71875 -25.28125 L 26.421875 -25.28125 Z M 26.75 -18.0625 "/></g></g></g><g fill="#ebdacc" fill-opacity="1"><g transform="translate(292.236906, 154.152096)"><g><path d="M 16.453125 -7.65625 L 7.15625 -7.65625 C 6.125 -5.332031 5.609375 -3.722656 5.609375 -2.828125 C 5.609375 -2.171875 5.851562 -1.753906 6.34375 -1.578125 C 6.84375 -1.398438 7.582031 -1.3125 8.5625 -1.3125 L 8.5625 0 L -0.421875 0 L -0.421875 -1.3125 C 0.0976562 -1.375 0.550781 -1.457031 0.9375 -1.5625 C 1.320312 -1.675781 1.660156 -1.832031 1.953125 -2.03125 C 2.242188 -2.226562 2.5 -2.484375 2.71875 -2.796875 C 2.9375 -3.117188 3.144531 -3.507812 3.34375 -3.96875 L 11.984375 -25.609375 L 14.40625 -25.609375 L 22.25 -6.4375 C 22.71875 -5.320312 23.109375 -4.445312 23.421875 -3.8125 C 23.742188 -3.175781 24.082031 -2.6875 24.4375 -2.34375 C 24.800781 -2.007812 25.21875 -1.773438 25.6875 -1.640625 C 26.15625 -1.503906 26.765625 -1.40625 27.515625 -1.34375 L 27.515625 0 L 15.09375 0 L 15.09375 -1.34375 C 16.144531 -1.382812 16.898438 -1.492188 17.359375 -1.671875 C 17.828125 -1.847656 18.0625 -2.195312 18.0625 -2.71875 C 18.0625 -3.03125 17.984375 -3.425781 17.828125 -3.90625 C 17.671875 -4.382812 17.460938 -4.972656 17.203125 -5.671875 Z M 7.90625 -9.625 L 15.71875 -9.625 L 11.953125 -19.5625 L 11.8125 -19.5625 Z M 7.90625 -9.625 "/></g></g></g><g fill="#ebdacc" fill-opacity="1"><g transform="translate(174.764744, 173.921136)"><g><path d="M 3.171875 0 L 1.671875 0 L 1.671875 -12.03125 L 15.359375 -12.03125 L 15.359375 -10.546875 L 3.171875 -10.546875 L 3.171875 -6.765625 L 13.953125 -6.765625 L 13.953125 -5.265625 L 3.171875 -5.265625 Z M 3.171875 0 "/></g></g></g><g fill="#ebdacc" fill-opacity="1"><g transform="translate(191.388675, 173.921136)"><g><path d="M 3.171875 0 L 3.171875 -12.03125 L 1.671875 -12.03125 L 1.671875 0 Z M 3.171875 0 "/></g></g></g><g fill="#ebdacc" fill-opacity="1"><g transform="translate(196.23907, 173.921136)"><g><path d="M 12.953125 0 L 4 0 C 3.238281 0 2.59375 -0.265625 2.0625 -0.796875 C 1.53125 -1.335938 1.265625 -1.984375 1.265625 -2.734375 L 2.75 -2.734375 C 2.75 -2.390625 2.867188 -2.097656 3.109375 -1.859375 C 3.359375 -1.617188 3.65625 -1.5 4 -1.5 L 12.953125 -1.5 C 13.296875 -1.5 13.585938 -1.617188 13.828125 -1.859375 C 14.078125 -2.097656 14.203125 -2.390625 14.203125 -2.734375 L 14.203125 -4.03125 C 14.203125 -4.375 14.078125 -4.664062 13.828125 -4.90625 C 13.585938 -5.144531 13.296875 -5.265625 12.953125 -5.265625 L 4 -5.265625 C 3.238281 -5.265625 2.59375 -5.53125 2.0625 -6.0625 C 1.53125 -6.601562 1.265625 -7.25 1.265625 -8 L 1.265625 -9.296875 C 1.265625 -10.054688 1.53125 -10.703125 2.0625 -11.234375 C 2.59375 -11.765625 3.238281 -12.03125 4 -12.03125 L 12.953125 -12.03125 C 13.710938 -12.03125 14.359375 -11.765625 14.890625 -11.234375 C 15.421875 -10.703125 15.6875 -10.054688 15.6875 -9.296875 L 14.203125 -9.296875 C 14.203125 -9.640625 14.078125 -9.929688 13.828125 -10.171875 C 13.585938 -10.421875 13.296875 -10.546875 12.953125 -10.546875 L 4 -10.546875 C 3.65625 -10.546875 3.359375 -10.421875 3.109375 -10.171875 C 2.867188 -9.929688 2.75 -9.640625 2.75 -9.296875 L 2.75 -8 C 2.75 -7.664062 2.867188 -7.375 3.109375 -7.125 C 3.359375 -6.882812 3.65625 -6.765625 4 -6.765625 L 12.953125 -6.765625 C 13.710938 -6.765625 14.359375 -6.492188 14.890625 -5.953125 C 15.421875 -5.421875 15.6875 -4.78125 15.6875 -4.03125 L 15.6875 -2.734375 C 15.6875 -1.984375 15.421875 -1.335938 14.890625 -0.796875 C 14.359375 -0.265625 13.710938 0 12.953125 0 Z M 12.953125 0 "/></g></g></g><g fill="#ebdacc" fill-opacity="1"><g transform="translate(213.190277, 173.921136)"><g><path d="M 3.171875 0 L 3.171875 -12.03125 L 1.671875 -12.03125 L 1.671875 0 Z M 3.171875 0 "/></g></g></g><g fill="#ebdacc" fill-opacity="1"><g transform="translate(218.040672, 173.921136)"><g><path d="M 11.953125 0 C 12.984375 0 13.863281 -0.363281 14.59375 -1.09375 C 15.320312 -1.820312 15.6875 -2.703125 15.6875 -3.734375 L 15.6875 -8.3125 C 15.6875 -9.34375 15.320312 -10.222656 14.59375 -10.953125 C 13.863281 -11.679688 12.984375 -12.046875 11.953125 -12.046875 L 5 -12.046875 C 3.96875 -12.046875 3.085938 -11.679688 2.359375 -10.953125 C 1.628906 -10.222656 1.265625 -9.34375 1.265625 -8.3125 L 1.265625 -3.734375 C 1.265625 -2.703125 1.628906 -1.820312 2.359375 -1.09375 C 3.085938 -0.363281 3.96875 0 5 0 Z M 11.953125 -1.5 L 5 -1.5 C 4.375 -1.5 3.84375 -1.71875 3.40625 -2.15625 C 2.96875 -2.59375 2.75 -3.117188 2.75 -3.734375 L 2.75 -8.3125 C 2.75 -8.925781 2.96875 -9.453125 3.40625 -9.890625 C 3.84375 -10.328125 4.375 -10.546875 5 -10.546875 L 11.953125 -10.546875 C 12.578125 -10.546875 13.109375 -10.328125 13.546875 -9.890625 C 13.984375 -9.453125 14.203125 -8.925781 14.203125 -8.3125 L 14.203125 -3.734375 C 14.203125 -3.117188 13.984375 -2.59375 13.546875 -2.15625 C 13.109375 -1.71875 12.578125 -1.5 11.953125 -1.5 Z M 11.953125 -1.5 "/></g></g></g><g fill="#ebdacc" fill-opacity="1"><g transform="translate(234.991878, 173.921136)"><g><path d="M 7.671875 0 L 6.171875 0 L 6.171875 -10.546875 L 0.25 -10.546875 L 0.25 -12.03125 L 13.59375 -12.03125 L 13.59375 -10.546875 L 7.671875 -10.546875 Z M 7.671875 0 "/></g></g></g><g fill="#ebdacc" fill-opacity="1"><g transform="translate(248.838161, 173.921136)"><g><path d="M 15.359375 0 L 1.671875 0 L 1.671875 -12.046875 L 15.359375 -12.046875 L 15.359375 -10.546875 L 3.171875 -10.546875 L 3.171875 -6.765625 L 13.953125 -6.765625 L 13.953125 -5.265625 L 3.171875 -5.265625 L 3.171875 -1.5 L 15.359375 -1.5 Z M 15.359375 0 "/></g></g></g><g fill="#ebdacc" fill-opacity="1"><g transform="translate(265.462092, 173.921136)"><g><path d="M 16.109375 0 L 14.625 0 L 14.625 -3.28125 C 14.625 -3.625 14.5 -3.914062 14.25 -4.15625 C 14.007812 -4.40625 13.71875 -4.53125 13.375 -4.53125 L 3.171875 -4.53125 L 3.171875 0 L 1.671875 0 L 1.671875 -12.03125 L 13.375 -12.03125 C 14.132812 -12.03125 14.78125 -11.765625 15.3125 -11.234375 C 15.84375 -10.703125 16.109375 -10.054688 16.109375 -9.296875 L 16.109375 -7.265625 C 16.109375 -6.472656 15.820312 -5.804688 15.25 -5.265625 C 15.820312 -4.722656 16.109375 -4.0625 16.109375 -3.28125 Z M 13.375 -6.015625 C 13.71875 -6.015625 14.007812 -6.132812 14.25 -6.375 C 14.5 -6.625 14.625 -6.921875 14.625 -7.265625 L 14.625 -9.296875 C 14.625 -9.640625 14.5 -9.929688 14.25 -10.171875 C 14.007812 -10.421875 13.71875 -10.546875 13.375 -10.546875 L 3.171875 -10.546875 L 3.171875 -6.015625 Z M 13.375 -6.015625 "/></g></g></g><g fill="#ebdacc" fill-opacity="1"><g transform="translate(282.832883, 173.921136)"><g><path d="M 17.3125 0 L 15.515625 0 L 13.671875 -2.71875 L 3.890625 -2.71875 L 2.0625 0 L 0.25 0 L 8.390625 -12.03125 L 9.171875 -12.03125 Z M 12.65625 -4.21875 L 8.78125 -9.953125 L 4.90625 -4.21875 Z M 12.65625 -4.21875 "/></g></g></g><g fill="#ebdacc" fill-opacity="1"><g transform="translate(300.396683, 173.921136)"><g><path d="M 3.171875 0 L 1.671875 0 L 1.671875 -12.03125 L 13.375 -12.03125 C 14.132812 -12.03125 14.78125 -11.765625 15.3125 -11.234375 C 15.84375 -10.703125 16.109375 -10.054688 16.109375 -9.296875 L 16.109375 -7.265625 C 16.109375 -6.503906 15.84375 -5.859375 15.3125 -5.328125 C 14.78125 -4.796875 14.132812 -4.53125 13.375 -4.53125 L 3.171875 -4.53125 Z M 13.375 -6.015625 C 13.71875 -6.015625 14.007812 -6.132812 14.25 -6.375 C 14.5 -6.625 14.625 -6.921875 14.625 -7.265625 L 14.625 -9.296875 C 14.625 -9.640625 14.5 -9.929688 14.25 -10.171875 C 14.007812 -10.421875 13.71875 -10.546875 13.375 -10.546875 L 3.171875 -10.546875 L 3.171875 -6.015625 Z M 13.375 -6.015625 "/></g></g></g><g fill="#ebdacc" fill-opacity="1"><g transform="translate(317.767474, 173.921136)"><g><path d="M 3.171875 0 L 3.171875 -12.03125 L 1.671875 -12.03125 L 1.671875 0 Z M 3.171875 0 "/></g></g></g><g fill="#ebdacc" fill-opacity="1"><g transform="translate(322.617868, 173.921136)"><g><path d="M 17.3125 0 L 15.515625 0 L 13.671875 -2.71875 L 3.890625 -2.71875 L 2.0625 0 L 0.25 0 L 8.390625 -12.03125 L 9.171875 -12.03125 Z M 12.65625 -4.21875 L 8.78125 -9.953125 L 4.90625 -4.21875 Z M 12.65625 -4.21875 "/></g></g></g></svg>