<svg xmlns="http://www.w3.org/2000/svg" xmlns:xlink="http://www.w3.org/1999/xlink" width="500" zoomAndPan="magnify" viewBox="0 0 375 262.499992" height="350" preserveAspectRatio="xMidYMid meet" version="1.0"><defs><g/><clipPath id="57c9149775"><path d="M 13 61 L 141.457031 61 L 141.457031 221 L 13 221 Z M 13 61 " clip-rule="nonzero"/></clipPath><clipPath id="f7f69afe20"><path d="M 31 14 L 81 14 L 81 249.152344 L 31 249.152344 Z M 31 14 " clip-rule="nonzero"/></clipPath><clipPath id="b0bae51eec"><path d="M 73 86 L 96 86 L 96 109 L 73 109 Z M 73 86 " clip-rule="nonzero"/></clipPath><clipPath id="ff481bf9c8"><path d="M 70.761719 90.097656 L 91.777344 83.347656 L 98.527344 104.363281 L 77.511719 111.113281 Z M 70.761719 90.097656 " clip-rule="nonzero"/></clipPath><clipPath id="adaefc7f06"><path d="M 81.269531 86.722656 C 75.464844 88.585938 72.273438 94.800781 74.136719 100.605469 C 76 106.410156 82.214844 109.601562 88.019531 107.738281 C 93.824219 105.875 97.015625 99.660156 95.152344 93.855469 C 93.289062 88.050781 87.074219 84.855469 81.269531 86.722656 Z M 81.269531 86.722656 " clip-rule="nonzero"/></clipPath><clipPath id="07d9f1e519"><path d="M 81 116 L 100 116 L 100 136 L 81 136 Z M 81 116 " clip-rule="nonzero"/></clipPath><clipPath id="f83d921494"><path d="M 78.9375 119.964844 L 96.605469 114.292969 L 102.277344 131.957031 L 84.613281 137.632812 Z M 78.9375 119.964844 " clip-rule="nonzero"/></clipPath><clipPath id="62acaa6ceb"><path d="M 87.769531 117.128906 C 82.894531 118.695312 80.207031 123.921875 81.773438 128.800781 C 83.34375 133.675781 88.566406 136.363281 93.445312 134.796875 C 98.324219 133.230469 101.007812 128.003906 99.441406 123.125 C 97.875 118.246094 92.648438 115.5625 87.769531 117.128906 Z M 87.769531 117.128906 " clip-rule="nonzero"/></clipPath><clipPath id="a77210900c"><path d="M 84 143 L 100 143 L 100 159 L 84 159 Z M 84 143 " clip-rule="nonzero"/></clipPath><clipPath id="5db72d06dd"><path d="M 82.835938 146.441406 L 96.847656 141.941406 L 101.347656 155.953125 L 87.335938 160.453125 Z M 82.835938 146.441406 " clip-rule="nonzero"/></clipPath><clipPath id="953a1b9773"><path d="M 89.84375 144.191406 C 85.972656 145.433594 83.84375 149.578125 85.085938 153.445312 C 86.328125 157.316406 90.472656 159.445312 94.34375 158.203125 C 98.210938 156.960938 100.339844 152.816406 99.097656 148.945312 C 97.855469 145.078125 93.710938 142.949219 89.84375 144.191406 Z M 89.84375 144.191406 " clip-rule="nonzero"/></clipPath><clipPath id="6a9d36f0ed"><path d="M 85 167 L 97 167 L 97 179 L 85 179 Z M 85 167 " clip-rule="nonzero"/></clipPath><clipPath id="ddcac84564"><path d="M 83.667969 169.277344 L 94.175781 165.902344 L 97.550781 176.414062 L 87.042969 179.789062 Z M 83.667969 169.277344 " clip-rule="nonzero"/></clipPath><clipPath id="e6a005d25c"><path d="M 88.921875 167.589844 C 86.019531 168.523438 84.421875 171.632812 85.355469 174.53125 C 86.285156 177.433594 89.394531 179.03125 92.296875 178.101562 C 95.199219 177.167969 96.792969 174.058594 95.863281 171.15625 C 94.929688 168.257812 91.824219 166.660156 88.921875 167.589844 Z M 88.921875 167.589844 " clip-rule="nonzero"/></clipPath></defs><path fill="#59371c" d="M 76.699219 58.671875 C 76.699219 65.710938 70.992188 71.417969 63.953125 71.417969 C 56.914062 71.417969 51.207031 65.710938 51.207031 58.671875 C 51.207031 51.632812 56.914062 45.925781 63.953125 45.925781 C 70.992188 45.925781 76.699219 51.632812 76.699219 58.671875 " fill-opacity="1" fill-rule="nonzero"/><g clip-path="url(#57c9149775)"><path fill="#b2784a" d="M 16.027344 157.347656 C 22.460938 169.929688 39.90625 174.179688 55.769531 176.867188 C 54.175781 172.730469 52.4375 168.554688 50.554688 164.277344 C 49.703125 162.34375 48.808594 160.402344 47.886719 158.4375 C 27.105469 147.785156 37.230469 132.050781 48.398438 115.042969 C 83.058594 62.253906 141.171875 64.335938 141.171875 64.335938 C 77.621094 43.539062 0.363281 126.722656 16.027344 157.347656 Z M 79.289062 168.121094 C 80.503906 172.695312 81.550781 177.394531 82.386719 182.21875 C 97.726562 187.390625 115.328125 199.683594 118.703125 220.628906 C 118.757812 221.136719 130.441406 184.609375 79.289062 168.121094 " fill-opacity="1" fill-rule="nonzero"/></g><g clip-path="url(#f7f69afe20)"><path fill="#59371c" d="M 54.875 113.402344 C 53.929688 114.71875 52.992188 116.066406 52.078125 117.457031 C 48.085938 123.539062 44.042969 129.730469 41.878906 135.304688 C 45.898438 144.484375 50.679688 153.648438 54.582031 162.503906 C 64.691406 185.46875 72.160156 208.027344 70.386719 239.628906 C 70.183594 243.359375 69.695312 249.082031 69.703125 249.085938 C 69.703125 249.085938 76.355469 237.945312 78.042969 228.550781 C 86.589844 181.054688 66.355469 145.882812 54.875 113.402344 Z M 62.015625 14.054688 C 32.421875 32.589844 29.332031 73.453125 32.621094 101.464844 C 37.242188 96.28125 42.425781 91.25 48.046875 86.535156 C 44.984375 65.695312 44.183594 38.734375 62.015625 14.054688 " fill-opacity="1" fill-rule="nonzero"/></g><g clip-path="url(#b0bae51eec)"><g clip-path="url(#ff481bf9c8)"><g clip-path="url(#adaefc7f06)"><path fill="#764b36" d="M 70.761719 90.097656 L 91.777344 83.347656 L 98.527344 104.363281 L 77.511719 111.113281 Z M 70.761719 90.097656 " fill-opacity="1" fill-rule="nonzero"/></g></g></g><g clip-path="url(#07d9f1e519)"><g clip-path="url(#f83d921494)"><g clip-path="url(#62acaa6ceb)"><path fill="#b2784a" d="M 78.9375 119.964844 L 96.605469 114.292969 L 102.277344 131.957031 L 84.613281 137.632812 Z M 78.9375 119.964844 " fill-opacity="1" fill-rule="nonzero"/></g></g></g><g clip-path="url(#a77210900c)"><g clip-path="url(#5db72d06dd)"><g clip-path="url(#953a1b9773)"><path fill="#d8a790" d="M 82.835938 146.441406 L 96.847656 141.941406 L 101.347656 155.953125 L 87.335938 160.453125 Z M 82.835938 146.441406 " fill-opacity="1" fill-rule="nonzero"/></g></g></g><g clip-path="url(#6a9d36f0ed)"><g clip-path="url(#ddcac84564)"><g clip-path="url(#e6a005d25c)"><path fill="#e4b1a5" d="M 83.667969 169.277344 L 94.175781 165.902344 L 97.550781 176.414062 L 87.042969 179.789062 Z M 83.667969 169.277344 " fill-opacity="1" fill-rule="nonzero"/></g></g></g><g fill="#59371c" fill-opacity="1"><g transform="translate(150.658289, 111.251955)"><g><path d="M 26.484375 -5.296875 C 26.484375 -4.460938 26.519531 -3.785156 26.59375 -3.265625 C 26.675781 -2.753906 26.84375 -2.359375 27.09375 -2.078125 C 27.351562 -1.804688 27.707031 -1.613281 28.15625 -1.5 C 28.601562 -1.394531 29.195312 -1.332031 29.9375 -1.3125 L 29.9375 0 L 17.875 0 L 17.875 -1.3125 C 18.675781 -1.332031 19.320312 -1.394531 19.8125 -1.5 C 20.3125 -1.613281 20.695312 -1.800781 20.96875 -2.0625 C 21.25 -2.332031 21.429688 -2.707031 21.515625 -3.1875 C 21.609375 -3.675781 21.65625 -4.300781 21.65625 -5.0625 L 21.65625 -11.9375 L 9.4375 -11.9375 L 9.4375 -5.296875 C 9.4375 -4.460938 9.476562 -3.785156 9.5625 -3.265625 C 9.65625 -2.753906 9.832031 -2.359375 10.09375 -2.078125 C 10.363281 -1.804688 10.742188 -1.613281 11.234375 -1.5 C 11.734375 -1.394531 12.390625 -1.332031 13.203125 -1.3125 L 13.203125 0 L 1.15625 0 L 1.15625 -1.3125 C 1.894531 -1.332031 2.488281 -1.394531 2.9375 -1.5 C 3.394531 -1.613281 3.742188 -1.800781 3.984375 -2.0625 C 4.222656 -2.332031 4.382812 -2.707031 4.46875 -3.1875 C 4.5625 -3.675781 4.609375 -4.300781 4.609375 -5.0625 L 4.609375 -20.265625 C 4.609375 -21.035156 4.566406 -21.65625 4.484375 -22.125 C 4.410156 -22.601562 4.265625 -22.976562 4.046875 -23.25 C 3.828125 -23.519531 3.515625 -23.703125 3.109375 -23.796875 C 2.703125 -23.898438 2.171875 -23.972656 1.515625 -24.015625 L 1.515625 -25.34375 L 12.859375 -25.34375 L 12.859375 -24.015625 C 12.117188 -23.992188 11.519531 -23.925781 11.0625 -23.8125 C 10.613281 -23.707031 10.269531 -23.507812 10.03125 -23.21875 C 9.789062 -22.9375 9.628906 -22.546875 9.546875 -22.046875 C 9.472656 -21.546875 9.4375 -20.878906 9.4375 -20.046875 L 9.4375 -13.984375 L 21.65625 -13.984375 L 21.65625 -20.265625 C 21.65625 -21.035156 21.609375 -21.65625 21.515625 -22.125 C 21.429688 -22.601562 21.269531 -22.976562 21.03125 -23.25 C 20.789062 -23.519531 20.441406 -23.703125 19.984375 -23.796875 C 19.535156 -23.898438 18.941406 -23.972656 18.203125 -24.015625 L 18.203125 -25.34375 L 29.578125 -25.34375 L 29.578125 -24.015625 C 28.921875 -23.992188 28.390625 -23.925781 27.984375 -23.8125 C 27.578125 -23.707031 27.265625 -23.507812 27.046875 -23.21875 C 26.828125 -22.9375 26.675781 -22.546875 26.59375 -22.046875 C 26.519531 -21.546875 26.484375 -20.878906 26.484375 -20.046875 Z M 26.484375 -5.296875 "/></g></g></g><g fill="#59371c" fill-opacity="1"><g transform="translate(181.753437, 111.251955)"><g><path d="M 9.4375 -14.015625 C 10.84375 -14.015625 11.972656 -14.054688 12.828125 -14.140625 C 13.679688 -14.234375 14.34375 -14.414062 14.8125 -14.6875 C 15.289062 -14.96875 15.628906 -15.367188 15.828125 -15.890625 C 16.023438 -16.421875 16.175781 -17.132812 16.28125 -18.03125 L 17.5 -18.03125 L 17.5 -8.390625 L 16.28125 -8.390625 C 16.15625 -9.265625 15.984375 -9.960938 15.765625 -10.484375 C 15.546875 -11.015625 15.191406 -11.414062 14.703125 -11.6875 C 14.222656 -11.96875 13.570312 -12.144531 12.75 -12.21875 C 11.925781 -12.300781 10.820312 -12.34375 9.4375 -12.34375 L 9.4375 -5.5625 C 9.4375 -4.863281 9.53125 -4.269531 9.71875 -3.78125 C 9.90625 -3.300781 10.21875 -2.910156 10.65625 -2.609375 C 11.09375 -2.316406 11.671875 -2.109375 12.390625 -1.984375 C 13.117188 -1.867188 14.015625 -1.8125 15.078125 -1.8125 C 16.328125 -1.8125 17.382812 -1.898438 18.25 -2.078125 C 19.113281 -2.253906 19.828125 -2.5625 20.390625 -3 C 20.960938 -3.4375 21.425781 -4.019531 21.78125 -4.75 C 22.132812 -5.488281 22.429688 -6.414062 22.671875 -7.53125 L 23.984375 -7.53125 L 23.46875 0 L 1.15625 0 L 1.15625 -1.3125 C 1.875 -1.332031 2.460938 -1.394531 2.921875 -1.5 C 3.390625 -1.613281 3.742188 -1.800781 3.984375 -2.0625 C 4.222656 -2.332031 4.382812 -2.707031 4.46875 -3.1875 C 4.5625 -3.675781 4.609375 -4.300781 4.609375 -5.0625 L 4.609375 -20.265625 C 4.609375 -21.035156 4.566406 -21.65625 4.484375 -22.125 C 4.410156 -22.601562 4.265625 -22.976562 4.046875 -23.25 C 3.828125 -23.519531 3.515625 -23.703125 3.109375 -23.796875 C 2.703125 -23.898438 2.171875 -23.972656 1.515625 -24.015625 L 1.515625 -25.34375 L 22.3125 -25.34375 L 22.546875 -18.890625 L 21.125 -18.890625 C 20.988281 -19.804688 20.78125 -20.566406 20.5 -21.171875 C 20.21875 -21.773438 19.820312 -22.257812 19.3125 -22.625 C 18.8125 -22.988281 18.160156 -23.238281 17.359375 -23.375 C 16.554688 -23.519531 15.570312 -23.59375 14.40625 -23.59375 L 10.6875 -23.59375 C 10.125 -23.59375 9.773438 -23.519531 9.640625 -23.375 C 9.503906 -23.238281 9.4375 -22.90625 9.4375 -22.375 Z M 9.4375 -14.015625 "/></g></g></g><g fill="#59371c" fill-opacity="1"><g transform="translate(206.892797, 111.251955)"><g><path d="M 22.046875 0.328125 L 7.46875 -20.4375 L 7.34375 -20.4375 L 7.34375 -6.28125 C 7.34375 -5.1875 7.378906 -4.320312 7.453125 -3.6875 C 7.523438 -3.050781 7.6875 -2.554688 7.9375 -2.203125 C 8.195312 -1.847656 8.550781 -1.613281 9 -1.5 C 9.445312 -1.394531 10.035156 -1.332031 10.765625 -1.3125 L 10.765625 0 L 0.984375 0 L 0.984375 -1.3125 C 1.796875 -1.332031 2.445312 -1.40625 2.9375 -1.53125 C 3.4375 -1.65625 3.820312 -1.878906 4.09375 -2.203125 C 4.375 -2.535156 4.554688 -3.003906 4.640625 -3.609375 C 4.722656 -4.210938 4.765625 -5.03125 4.765625 -6.0625 L 4.765625 -19.28125 C 4.765625 -20.207031 4.722656 -20.96875 4.640625 -21.5625 C 4.554688 -22.164062 4.390625 -22.644531 4.140625 -23 C 3.898438 -23.351562 3.554688 -23.597656 3.109375 -23.734375 C 2.660156 -23.878906 2.0625 -23.972656 1.3125 -24.015625 L 1.3125 -25.34375 L 10.5 -25.34375 L 23.765625 -6.3125 L 23.890625 -6.3125 L 23.890625 -19.046875 C 23.890625 -20.128906 23.847656 -20.992188 23.765625 -21.640625 C 23.691406 -22.285156 23.53125 -22.78125 23.28125 -23.125 C 23.03125 -23.476562 22.675781 -23.707031 22.21875 -23.8125 C 21.769531 -23.925781 21.1875 -23.992188 20.46875 -24.015625 L 20.46875 -25.34375 L 30.234375 -25.34375 L 30.234375 -24.015625 C 29.421875 -23.992188 28.769531 -23.921875 28.28125 -23.796875 C 27.789062 -23.679688 27.40625 -23.457031 27.125 -23.125 C 26.851562 -22.800781 26.671875 -22.332031 26.578125 -21.71875 C 26.492188 -21.101562 26.453125 -20.289062 26.453125 -19.28125 L 26.453125 0.328125 Z M 22.046875 0.328125 "/></g></g></g><g fill="#59371c" fill-opacity="1"><g transform="translate(237.823419, 111.251955)"><g><path d="M 22.875 -18.984375 C 22.875 -17.160156 22.34375 -15.632812 21.28125 -14.40625 C 20.226562 -13.175781 18.550781 -12.351562 16.25 -11.9375 L 23.890625 -3.1875 C 24.421875 -2.570312 25.046875 -2.101562 25.765625 -1.78125 C 26.484375 -1.46875 27.21875 -1.3125 27.96875 -1.3125 L 27.96875 0 L 20.171875 0 L 12.015625 -10 C 11.460938 -10.65625 10.984375 -11.097656 10.578125 -11.328125 C 10.171875 -11.566406 9.789062 -11.6875 9.4375 -11.6875 L 9.4375 -5.234375 C 9.4375 -4.421875 9.488281 -3.753906 9.59375 -3.234375 C 9.707031 -2.722656 9.929688 -2.320312 10.265625 -2.03125 C 10.597656 -1.75 11.078125 -1.554688 11.703125 -1.453125 C 12.328125 -1.359375 13.164062 -1.3125 14.21875 -1.3125 L 14.21875 0 L 1.15625 0 L 1.15625 -1.3125 C 1.875 -1.3125 2.457031 -1.359375 2.90625 -1.453125 C 3.363281 -1.554688 3.71875 -1.742188 3.96875 -2.015625 C 4.21875 -2.296875 4.382812 -2.679688 4.46875 -3.171875 C 4.5625 -3.671875 4.609375 -4.300781 4.609375 -5.0625 L 4.609375 -20.265625 C 4.609375 -21.035156 4.570312 -21.65625 4.5 -22.125 C 4.4375 -22.601562 4.296875 -22.976562 4.078125 -23.25 C 3.859375 -23.519531 3.546875 -23.703125 3.140625 -23.796875 C 2.734375 -23.898438 2.191406 -23.972656 1.515625 -24.015625 L 1.515625 -25.34375 L 12.90625 -25.34375 C 16.082031 -25.34375 18.535156 -24.78125 20.265625 -23.65625 C 22.003906 -22.539062 22.875 -20.984375 22.875 -18.984375 Z M 9.4375 -13.65625 L 11.578125 -13.65625 C 13.640625 -13.65625 15.179688 -14.054688 16.203125 -14.859375 C 17.222656 -15.660156 17.734375 -16.984375 17.734375 -18.828125 C 17.734375 -20.222656 17.304688 -21.347656 16.453125 -22.203125 C 15.597656 -23.066406 14.414062 -23.5 12.90625 -23.5 L 10.03125 -23.5 C 9.632812 -23.5 9.4375 -23.3125 9.4375 -22.9375 Z M 9.4375 -13.65625 "/></g></g></g><g fill="#59371c" fill-opacity="1"><g transform="translate(264.640927, 111.251955)"><g><path d="M 12.9375 0 L 1.1875 0 L 1.1875 -1.3125 C 1.925781 -1.332031 2.519531 -1.40625 2.96875 -1.53125 C 3.425781 -1.65625 3.773438 -1.878906 4.015625 -2.203125 C 4.253906 -2.535156 4.414062 -3.003906 4.5 -3.609375 C 4.59375 -4.210938 4.640625 -5.03125 4.640625 -6.0625 L 4.640625 -19.28125 C 4.640625 -20.207031 4.597656 -20.96875 4.515625 -21.5625 C 4.441406 -22.164062 4.296875 -22.644531 4.078125 -23 C 3.859375 -23.351562 3.546875 -23.597656 3.140625 -23.734375 C 2.734375 -23.878906 2.191406 -23.972656 1.515625 -24.015625 L 1.515625 -25.34375 L 12.609375 -25.34375 L 12.609375 -24.015625 C 11.921875 -23.972656 11.375 -23.878906 10.96875 -23.734375 C 10.5625 -23.597656 10.25 -23.351562 10.03125 -23 C 9.8125 -22.644531 9.664062 -22.164062 9.59375 -21.5625 C 9.519531 -20.96875 9.484375 -20.207031 9.484375 -19.28125 L 9.484375 -6.0625 C 9.484375 -5.03125 9.519531 -4.210938 9.59375 -3.609375 C 9.664062 -3.003906 9.828125 -2.535156 10.078125 -2.203125 C 10.335938 -1.878906 10.691406 -1.65625 11.140625 -1.53125 C 11.585938 -1.40625 12.1875 -1.332031 12.9375 -1.3125 Z M 12.9375 0 "/></g></g></g><g fill="#59371c" fill-opacity="1"><g transform="translate(278.757134, 111.251955)"><g><path d="M 15.5 -25.671875 C 17.5 -25.671875 19.363281 -25.328125 21.09375 -24.640625 C 22.820312 -23.960938 24.328125 -23.023438 25.609375 -21.828125 C 26.898438 -20.640625 27.910156 -19.238281 28.640625 -17.625 C 29.378906 -16.007812 29.75 -14.28125 29.75 -12.4375 C 29.75 -10.175781 29.191406 -8.097656 28.078125 -6.203125 C 26.972656 -4.304688 25.421875 -2.710938 23.421875 -1.421875 C 23.054688 -1.171875 22.703125 -0.953125 22.359375 -0.765625 C 22.015625 -0.585938 21.625 -0.398438 21.1875 -0.203125 C 20.75 -0.00390625 20.238281 0.203125 19.65625 0.421875 C 19.082031 0.640625 18.390625 0.894531 17.578125 1.1875 C 17.085938 1.363281 16.671875 1.515625 16.328125 1.640625 C 15.992188 1.773438 15.691406 1.898438 15.421875 2.015625 C 15.160156 2.140625 14.925781 2.257812 14.71875 2.375 C 14.507812 2.5 14.304688 2.628906 14.109375 2.765625 L 14.109375 2.890625 C 14.265625 2.867188 14.460938 2.851562 14.703125 2.84375 C 14.953125 2.832031 15.1875 2.828125 15.40625 2.828125 C 16.34375 2.828125 17.234375 2.929688 18.078125 3.140625 C 18.921875 3.347656 19.753906 3.570312 20.578125 3.8125 C 21.398438 4.050781 22.226562 4.273438 23.0625 4.484375 C 23.894531 4.691406 24.773438 4.796875 25.703125 4.796875 C 26.753906 4.796875 27.578125 4.609375 28.171875 4.234375 C 28.765625 3.867188 29.222656 3.25 29.546875 2.375 L 30.765625 2.375 C 30.804688 2.65625 30.835938 2.914062 30.859375 3.15625 C 30.890625 3.394531 30.90625 3.601562 30.90625 3.78125 C 30.90625 4.457031 30.75 5.085938 30.4375 5.671875 C 30.132812 6.253906 29.707031 6.757812 29.15625 7.1875 C 28.601562 7.613281 27.953125 7.945312 27.203125 8.1875 C 26.460938 8.4375 25.664062 8.5625 24.8125 8.5625 C 23.582031 8.5625 22.441406 8.351562 21.390625 7.9375 C 20.335938 7.519531 19.328125 7.054688 18.359375 6.546875 C 17.390625 6.046875 16.46875 5.585938 15.59375 5.171875 C 14.71875 4.753906 13.851562 4.546875 13 4.546875 C 12.40625 4.546875 11.921875 4.644531 11.546875 4.84375 C 11.171875 5.039062 10.835938 5.253906 10.546875 5.484375 C 10.253906 5.710938 9.957031 5.925781 9.65625 6.125 C 9.363281 6.320312 9.007812 6.421875 8.59375 6.421875 C 8.21875 6.421875 7.921875 6.332031 7.703125 6.15625 C 7.484375 5.976562 7.375 5.757812 7.375 5.5 C 7.375 5.125 7.539062 4.773438 7.875 4.453125 C 8.21875 4.140625 8.847656 3.726562 9.765625 3.21875 L 13.921875 0.890625 C 12.160156 0.734375 10.523438 0.285156 9.015625 -0.453125 C 7.503906 -1.203125 6.191406 -2.171875 5.078125 -3.359375 C 3.972656 -4.546875 3.101562 -5.910156 2.46875 -7.453125 C 1.832031 -8.992188 1.515625 -10.644531 1.515625 -12.40625 C 1.515625 -14.269531 1.867188 -16.015625 2.578125 -17.640625 C 3.296875 -19.265625 4.28125 -20.664062 5.53125 -21.84375 C 6.78125 -23.03125 8.257812 -23.960938 9.96875 -24.640625 C 11.675781 -25.328125 13.519531 -25.671875 15.5 -25.671875 Z M 15.5 -0.984375 C 16.789062 -0.984375 17.960938 -1.25 19.015625 -1.78125 C 20.066406 -2.320312 20.957031 -3.085938 21.6875 -4.078125 C 22.425781 -5.066406 23 -6.257812 23.40625 -7.65625 C 23.8125 -9.0625 24.015625 -10.625 24.015625 -12.34375 C 24.015625 -14.050781 23.8125 -15.59375 23.40625 -16.96875 C 23 -18.351562 22.425781 -19.53125 21.6875 -20.5 C 20.957031 -21.46875 20.066406 -22.210938 19.015625 -22.734375 C 17.960938 -23.265625 16.789062 -23.53125 15.5 -23.53125 C 14.207031 -23.53125 13.050781 -23.269531 12.03125 -22.75 C 11.007812 -22.238281 10.144531 -21.5 9.4375 -20.53125 C 8.738281 -19.5625 8.195312 -18.382812 7.8125 -17 C 7.425781 -15.625 7.234375 -14.070312 7.234375 -12.34375 C 7.234375 -10.582031 7.425781 -9 7.8125 -7.59375 C 8.195312 -6.195312 8.742188 -5.007812 9.453125 -4.03125 C 10.171875 -3.050781 11.039062 -2.296875 12.0625 -1.765625 C 13.082031 -1.242188 14.226562 -0.984375 15.5 -0.984375 Z M 15.5 -0.984375 "/></g></g></g><g fill="#59371c" fill-opacity="1"><g transform="translate(309.983903, 111.251955)"><g><path d="M 24.90625 -10.203125 C 24.90625 -8.335938 24.703125 -6.738281 24.296875 -5.40625 C 23.890625 -4.082031 23.257812 -2.992188 22.40625 -2.140625 C 21.550781 -1.285156 20.445312 -0.660156 19.09375 -0.265625 C 17.75 0.128906 16.132812 0.328125 14.25 0.328125 C 10.71875 0.328125 8.132812 -0.410156 6.5 -1.890625 C 4.863281 -3.367188 4.046875 -5.734375 4.046875 -8.984375 L 4.046875 -18 C 4.046875 -18.851562 4.035156 -19.570312 4.015625 -20.15625 C 3.992188 -20.738281 3.957031 -21.226562 3.90625 -21.625 C 3.863281 -22.019531 3.804688 -22.34375 3.734375 -22.59375 C 3.660156 -22.84375 3.566406 -23.054688 3.453125 -23.234375 C 3.253906 -23.535156 2.96875 -23.738281 2.59375 -23.84375 C 2.226562 -23.957031 1.660156 -24.015625 0.890625 -24.015625 L 0.890625 -25.34375 L 12.703125 -25.34375 L 12.703125 -24.015625 C 11.773438 -24.015625 11.09375 -23.960938 10.65625 -23.859375 C 10.21875 -23.765625 9.878906 -23.578125 9.640625 -23.296875 C 9.484375 -23.117188 9.351562 -22.90625 9.25 -22.65625 C 9.15625 -22.40625 9.082031 -22.078125 9.03125 -21.671875 C 8.976562 -21.265625 8.941406 -20.765625 8.921875 -20.171875 C 8.898438 -19.578125 8.890625 -18.851562 8.890625 -18 L 8.890625 -9.375 C 8.890625 -6.875 9.421875 -5.023438 10.484375 -3.828125 C 11.546875 -2.640625 13.1875 -2.046875 15.40625 -2.046875 C 19.914062 -2.046875 22.171875 -4.554688 22.171875 -9.578125 L 22.171875 -17.171875 C 22.171875 -18.097656 22.15625 -18.890625 22.125 -19.546875 C 22.09375 -20.203125 22.035156 -20.757812 21.953125 -21.21875 C 21.878906 -21.6875 21.78125 -22.070312 21.65625 -22.375 C 21.539062 -22.6875 21.394531 -22.941406 21.21875 -23.140625 C 20.914062 -23.441406 20.519531 -23.660156 20.03125 -23.796875 C 19.550781 -23.941406 18.882812 -24.015625 18.03125 -24.015625 L 18.03125 -25.34375 L 28.6875 -25.34375 L 28.6875 -24.015625 C 27.882812 -24.015625 27.257812 -23.953125 26.8125 -23.828125 C 26.375 -23.710938 26.035156 -23.503906 25.796875 -23.203125 C 25.617188 -23.003906 25.472656 -22.742188 25.359375 -22.421875 C 25.253906 -22.109375 25.171875 -21.710938 25.109375 -21.234375 C 25.046875 -20.765625 24.992188 -20.203125 24.953125 -19.546875 C 24.921875 -18.890625 24.90625 -18.097656 24.90625 -17.171875 Z M 24.90625 -10.203125 "/></g></g></g><g fill="#59371c" fill-opacity="1"><g transform="translate(338.940231, 111.251955)"><g><path d="M 9.4375 -14.015625 C 10.84375 -14.015625 11.972656 -14.054688 12.828125 -14.140625 C 13.679688 -14.234375 14.34375 -14.414062 14.8125 -14.6875 C 15.289062 -14.96875 15.628906 -15.367188 15.828125 -15.890625 C 16.023438 -16.421875 16.175781 -17.132812 16.28125 -18.03125 L 17.5 -18.03125 L 17.5 -8.390625 L 16.28125 -8.390625 C 16.15625 -9.265625 15.984375 -9.960938 15.765625 -10.484375 C 15.546875 -11.015625 15.191406 -11.414062 14.703125 -11.6875 C 14.222656 -11.96875 13.570312 -12.144531 12.75 -12.21875 C 11.925781 -12.300781 10.820312 -12.34375 9.4375 -12.34375 L 9.4375 -5.5625 C 9.4375 -4.863281 9.53125 -4.269531 9.71875 -3.78125 C 9.90625 -3.300781 10.21875 -2.910156 10.65625 -2.609375 C 11.09375 -2.316406 11.671875 -2.109375 12.390625 -1.984375 C 13.117188 -1.867188 14.015625 -1.8125 15.078125 -1.8125 C 16.328125 -1.8125 17.382812 -1.898438 18.25 -2.078125 C 19.113281 -2.253906 19.828125 -2.5625 20.390625 -3 C 20.960938 -3.4375 21.425781 -4.019531 21.78125 -4.75 C 22.132812 -5.488281 22.429688 -6.414062 22.671875 -7.53125 L 23.984375 -7.53125 L 23.46875 0 L 1.15625 0 L 1.15625 -1.3125 C 1.875 -1.332031 2.460938 -1.394531 2.921875 -1.5 C 3.390625 -1.613281 3.742188 -1.800781 3.984375 -2.0625 C 4.222656 -2.332031 4.382812 -2.707031 4.46875 -3.1875 C 4.5625 -3.675781 4.609375 -4.300781 4.609375 -5.0625 L 4.609375 -20.265625 C 4.609375 -21.035156 4.566406 -21.65625 4.484375 -22.125 C 4.410156 -22.601562 4.265625 -22.976562 4.046875 -23.25 C 3.828125 -23.519531 3.515625 -23.703125 3.109375 -23.796875 C 2.703125 -23.898438 2.171875 -23.972656 1.515625 -24.015625 L 1.515625 -25.34375 L 22.3125 -25.34375 L 22.546875 -18.890625 L 21.125 -18.890625 C 20.988281 -19.804688 20.78125 -20.566406 20.5 -21.171875 C 20.21875 -21.773438 19.820312 -22.257812 19.3125 -22.625 C 18.8125 -22.988281 18.160156 -23.238281 17.359375 -23.375 C 16.554688 -23.519531 15.570312 -23.59375 14.40625 -23.59375 L 10.6875 -23.59375 C 10.125 -23.59375 9.773438 -23.519531 9.640625 -23.375 C 9.503906 -23.238281 9.4375 -22.90625 9.4375 -22.375 Z M 9.4375 -14.015625 "/></g></g></g><g fill="#59371c" fill-opacity="1"><g transform="translate(196.093162, 157.109393)"><g><path d="M 19.125 -6.15625 L 26.71875 -25.34375 L 36.328125 -25.34375 L 36.328125 -24.015625 C 35.609375 -24.015625 35.019531 -23.941406 34.5625 -23.796875 C 34.113281 -23.660156 33.769531 -23.40625 33.53125 -23.03125 C 33.289062 -22.65625 33.128906 -22.144531 33.046875 -21.5 C 32.972656 -20.851562 32.9375 -20.035156 32.9375 -19.046875 L 32.9375 -6.28125 C 32.9375 -5.1875 32.976562 -4.320312 33.0625 -3.6875 C 33.15625 -3.050781 33.332031 -2.554688 33.59375 -2.203125 C 33.863281 -1.847656 34.242188 -1.613281 34.734375 -1.5 C 35.222656 -1.394531 35.875 -1.332031 36.6875 -1.3125 L 36.6875 0 L 24.3125 0 L 24.3125 -1.3125 C 25.125 -1.332031 25.773438 -1.40625 26.265625 -1.53125 C 26.765625 -1.65625 27.148438 -1.878906 27.421875 -2.203125 C 27.703125 -2.535156 27.882812 -3.003906 27.96875 -3.609375 C 28.0625 -4.210938 28.109375 -5.03125 28.109375 -6.0625 L 28.109375 -21.453125 L 27.9375 -21.453125 L 19.078125 0.328125 L 16.65625 0.328125 L 7.5 -21.453125 L 7.375 -21.453125 L 7.375 -6.28125 C 7.375 -5.1875 7.414062 -4.320312 7.5 -3.6875 C 7.59375 -3.050781 7.769531 -2.554688 8.03125 -2.203125 C 8.289062 -1.847656 8.664062 -1.613281 9.15625 -1.5 C 9.65625 -1.394531 10.3125 -1.332031 11.125 -1.3125 L 11.125 0 L 0.984375 0 L 0.984375 -1.3125 C 1.796875 -1.332031 2.453125 -1.40625 2.953125 -1.53125 C 3.460938 -1.65625 3.851562 -1.878906 4.125 -2.203125 C 4.40625 -2.535156 4.585938 -3.003906 4.671875 -3.609375 C 4.753906 -4.210938 4.796875 -5.03125 4.796875 -6.0625 L 4.796875 -19.28125 C 4.796875 -20.207031 4.753906 -20.976562 4.671875 -21.59375 C 4.585938 -22.207031 4.421875 -22.691406 4.171875 -23.046875 C 3.929688 -23.410156 3.585938 -23.660156 3.140625 -23.796875 C 2.691406 -23.941406 2.09375 -24.015625 1.34375 -24.015625 L 1.34375 -25.34375 L 11.3125 -25.34375 L 18.984375 -6.15625 Z M 19.125 -6.15625 "/></g></g></g><g fill="#59371c" fill-opacity="1"><g transform="translate(233.769297, 157.109393)"><g><path d="M 15.53125 -25.671875 C 17.507812 -25.671875 19.351562 -25.328125 21.0625 -24.640625 C 22.769531 -23.960938 24.253906 -23.03125 25.515625 -21.84375 C 26.773438 -20.664062 27.765625 -19.273438 28.484375 -17.671875 C 29.210938 -16.066406 29.578125 -14.332031 29.578125 -12.46875 C 29.578125 -10.695312 29.207031 -9.03125 28.46875 -7.46875 C 27.738281 -5.914062 26.742188 -4.5625 25.484375 -3.40625 C 24.222656 -2.25 22.734375 -1.335938 21.015625 -0.671875 C 19.304688 -0.00390625 17.476562 0.328125 15.53125 0.328125 C 13.582031 0.328125 11.75 -0.00390625 10.03125 -0.671875 C 8.320312 -1.335938 6.832031 -2.25 5.5625 -3.40625 C 4.289062 -4.5625 3.289062 -5.914062 2.5625 -7.46875 C 1.84375 -9.03125 1.484375 -10.695312 1.484375 -12.46875 C 1.484375 -14.332031 1.84375 -16.066406 2.5625 -17.671875 C 3.289062 -19.273438 4.285156 -20.664062 5.546875 -21.84375 C 6.804688 -23.03125 8.289062 -23.960938 10 -24.640625 C 11.707031 -25.328125 13.550781 -25.671875 15.53125 -25.671875 Z M 15.53125 -1.8125 C 16.800781 -1.8125 17.953125 -2.054688 18.984375 -2.546875 C 20.015625 -3.046875 20.890625 -3.75 21.609375 -4.65625 C 22.335938 -5.5625 22.894531 -6.664062 23.28125 -7.96875 C 23.664062 -9.28125 23.859375 -10.75 23.859375 -12.375 C 23.859375 -14.082031 23.664062 -15.617188 23.28125 -16.984375 C 22.894531 -18.359375 22.335938 -19.535156 21.609375 -20.515625 C 20.890625 -21.492188 20.015625 -22.238281 18.984375 -22.75 C 17.953125 -23.269531 16.800781 -23.53125 15.53125 -23.53125 C 14.238281 -23.53125 13.082031 -23.269531 12.0625 -22.75 C 11.039062 -22.238281 10.164062 -21.492188 9.4375 -20.515625 C 8.71875 -19.535156 8.164062 -18.359375 7.78125 -16.984375 C 7.394531 -15.617188 7.203125 -14.082031 7.203125 -12.375 C 7.203125 -10.75 7.394531 -9.28125 7.78125 -7.96875 C 8.164062 -6.664062 8.71875 -5.5625 9.4375 -4.65625 C 10.164062 -3.75 11.039062 -3.046875 12.0625 -2.546875 C 13.082031 -2.054688 14.238281 -1.8125 15.53125 -1.8125 Z M 15.53125 -1.8125 "/></g></g></g><g fill="#59371c" fill-opacity="1"><g transform="translate(264.798635, 157.109393)"><g><path d="M 26.8125 -18.09375 L 25.40625 -18.09375 C 25.34375 -19.164062 25.179688 -20.054688 24.921875 -20.765625 C 24.671875 -21.484375 24.316406 -22.054688 23.859375 -22.484375 C 23.398438 -22.921875 22.835938 -23.21875 22.171875 -23.375 C 21.515625 -23.539062 20.75 -23.625 19.875 -23.625 C 19.019531 -23.625 18.332031 -23.609375 17.8125 -23.578125 C 17.300781 -23.546875 16.90625 -23.488281 16.625 -23.40625 C 16.351562 -23.332031 16.171875 -23.226562 16.078125 -23.09375 C 15.992188 -22.96875 15.953125 -22.804688 15.953125 -22.609375 L 15.953125 -5.359375 C 15.953125 -4.660156 16 -4.054688 16.09375 -3.546875 C 16.195312 -3.046875 16.398438 -2.632812 16.703125 -2.3125 C 17.015625 -2 17.46875 -1.757812 18.0625 -1.59375 C 18.65625 -1.425781 19.4375 -1.332031 20.40625 -1.3125 L 20.40625 0 L 6.609375 0 L 6.609375 -1.3125 C 7.597656 -1.332031 8.390625 -1.425781 8.984375 -1.59375 C 9.578125 -1.757812 10.03125 -2 10.34375 -2.3125 C 10.664062 -2.632812 10.875 -3.046875 10.96875 -3.546875 C 11.070312 -4.054688 11.125 -4.660156 11.125 -5.359375 L 11.125 -22.609375 C 11.125 -22.804688 11.082031 -22.96875 11 -23.09375 C 10.925781 -23.226562 10.769531 -23.332031 10.53125 -23.40625 C 10.289062 -23.488281 9.941406 -23.546875 9.484375 -23.578125 C 9.035156 -23.609375 8.453125 -23.625 7.734375 -23.625 C 6.941406 -23.625 6.179688 -23.582031 5.453125 -23.5 C 4.734375 -23.425781 4.097656 -23.207031 3.546875 -22.84375 C 3.003906 -22.488281 2.5625 -21.941406 2.21875 -21.203125 C 1.882812 -20.472656 1.703125 -19.4375 1.671875 -18.09375 L 0.390625 -18.09375 L 0.71875 -25.34375 L 26.484375 -25.34375 Z M 26.8125 -18.09375 "/></g></g></g><g fill="#59371c" fill-opacity="1"><g transform="translate(292.011006, 157.109393)"><g><path d="M 16.484375 -7.671875 L 7.171875 -7.671875 C 6.140625 -5.335938 5.625 -3.722656 5.625 -2.828125 C 5.625 -2.171875 5.867188 -1.753906 6.359375 -1.578125 C 6.859375 -1.398438 7.601562 -1.3125 8.59375 -1.3125 L 8.59375 0 L -0.421875 0 L -0.421875 -1.3125 C 0.0976562 -1.382812 0.550781 -1.472656 0.9375 -1.578125 C 1.320312 -1.691406 1.660156 -1.847656 1.953125 -2.046875 C 2.253906 -2.242188 2.515625 -2.5 2.734375 -2.8125 C 2.953125 -3.132812 3.160156 -3.523438 3.359375 -3.984375 L 12.015625 -25.671875 L 14.453125 -25.671875 L 22.3125 -6.453125 C 22.769531 -5.328125 23.15625 -4.445312 23.46875 -3.8125 C 23.789062 -3.175781 24.132812 -2.6875 24.5 -2.34375 C 24.863281 -2.007812 25.28125 -1.773438 25.75 -1.640625 C 26.21875 -1.515625 26.828125 -1.414062 27.578125 -1.34375 L 27.578125 0 L 15.140625 0 L 15.140625 -1.34375 C 16.191406 -1.394531 16.945312 -1.503906 17.40625 -1.671875 C 17.863281 -1.847656 18.09375 -2.203125 18.09375 -2.734375 C 18.09375 -3.035156 18.015625 -3.425781 17.859375 -3.90625 C 17.710938 -4.394531 17.507812 -4.988281 17.25 -5.6875 Z M 7.9375 -9.640625 L 15.765625 -9.640625 L 11.984375 -19.609375 L 11.84375 -19.609375 Z M 7.9375 -9.640625 "/></g></g></g><g fill="#59371c" fill-opacity="1"><g transform="translate(174.216838, 176.93261)"><g><path d="M 3.1875 0 L 1.6875 0 L 1.6875 -12.0625 L 15.40625 -12.0625 L 15.40625 -10.5625 L 3.1875 -10.5625 L 3.1875 -6.78125 L 14 -6.78125 L 14 -5.28125 L 3.1875 -5.28125 Z M 3.1875 0 "/></g></g></g><g fill="#59371c" fill-opacity="1"><g transform="translate(190.886338, 176.93261)"><g><path d="M 3.1875 0 L 3.1875 -12.0625 L 1.6875 -12.0625 L 1.6875 0 Z M 3.1875 0 "/></g></g></g><g fill="#59371c" fill-opacity="1"><g transform="translate(195.750029, 176.93261)"><g><path d="M 13 0 L 4 0 C 3.25 0 2.601562 -0.265625 2.0625 -0.796875 C 1.53125 -1.335938 1.265625 -1.988281 1.265625 -2.75 L 2.765625 -2.75 C 2.765625 -2.40625 2.882812 -2.109375 3.125 -1.859375 C 3.375 -1.617188 3.664062 -1.5 4 -1.5 L 13 -1.5 C 13.332031 -1.5 13.617188 -1.617188 13.859375 -1.859375 C 14.109375 -2.109375 14.234375 -2.40625 14.234375 -2.75 L 14.234375 -4.046875 C 14.234375 -4.378906 14.109375 -4.664062 13.859375 -4.90625 C 13.617188 -5.15625 13.332031 -5.28125 13 -5.28125 L 4 -5.28125 C 3.25 -5.28125 2.601562 -5.546875 2.0625 -6.078125 C 1.53125 -6.617188 1.265625 -7.269531 1.265625 -8.03125 L 1.265625 -9.328125 C 1.265625 -10.078125 1.53125 -10.71875 2.0625 -11.25 C 2.601562 -11.789062 3.25 -12.0625 4 -12.0625 L 13 -12.0625 C 13.75 -12.0625 14.390625 -11.789062 14.921875 -11.25 C 15.460938 -10.71875 15.734375 -10.078125 15.734375 -9.328125 L 14.234375 -9.328125 C 14.234375 -9.671875 14.109375 -9.960938 13.859375 -10.203125 C 13.617188 -10.441406 13.332031 -10.5625 13 -10.5625 L 4 -10.5625 C 3.664062 -10.5625 3.375 -10.441406 3.125 -10.203125 C 2.882812 -9.960938 2.765625 -9.671875 2.765625 -9.328125 L 2.765625 -8.03125 C 2.765625 -7.6875 2.882812 -7.390625 3.125 -7.140625 C 3.375 -6.898438 3.664062 -6.78125 4 -6.78125 L 13 -6.78125 C 13.75 -6.78125 14.390625 -6.507812 14.921875 -5.96875 C 15.460938 -5.4375 15.734375 -4.796875 15.734375 -4.046875 L 15.734375 -2.75 C 15.734375 -1.988281 15.460938 -1.335938 14.921875 -0.796875 C 14.390625 -0.265625 13.75 0 13 0 Z M 13 0 "/></g></g></g><g fill="#59371c" fill-opacity="1"><g transform="translate(212.747702, 176.93261)"><g><path d="M 3.1875 0 L 3.1875 -12.0625 L 1.6875 -12.0625 L 1.6875 0 Z M 3.1875 0 "/></g></g></g><g fill="#59371c" fill-opacity="1"><g transform="translate(217.611392, 176.93261)"><g><path d="M 11.984375 0 C 13.023438 0 13.910156 -0.363281 14.640625 -1.09375 C 15.367188 -1.832031 15.734375 -2.71875 15.734375 -3.75 L 15.734375 -8.328125 C 15.734375 -9.359375 15.367188 -10.238281 14.640625 -10.96875 C 13.910156 -11.707031 13.023438 -12.078125 11.984375 -12.078125 L 5 -12.078125 C 3.96875 -12.078125 3.085938 -11.707031 2.359375 -10.96875 C 1.628906 -10.238281 1.265625 -9.359375 1.265625 -8.328125 L 1.265625 -3.75 C 1.265625 -2.71875 1.628906 -1.832031 2.359375 -1.09375 C 3.085938 -0.363281 3.96875 0 5 0 Z M 11.984375 -1.5 L 5 -1.5 C 4.382812 -1.5 3.859375 -1.71875 3.421875 -2.15625 C 2.984375 -2.59375 2.765625 -3.125 2.765625 -3.75 L 2.765625 -8.328125 C 2.765625 -8.941406 2.984375 -9.46875 3.421875 -9.90625 C 3.859375 -10.351562 4.382812 -10.578125 5 -10.578125 L 11.984375 -10.578125 C 12.609375 -10.578125 13.140625 -10.351562 13.578125 -9.90625 C 14.015625 -9.46875 14.234375 -8.941406 14.234375 -8.328125 L 14.234375 -3.75 C 14.234375 -3.125 14.015625 -2.59375 13.578125 -2.15625 C 13.140625 -1.71875 12.609375 -1.5 11.984375 -1.5 Z M 11.984375 -1.5 "/></g></g></g><g fill="#59371c" fill-opacity="1"><g transform="translate(234.609065, 176.93261)"><g><path d="M 7.6875 0 L 6.1875 0 L 6.1875 -10.5625 L 0.25 -10.5625 L 0.25 -12.0625 L 13.625 -12.0625 L 13.625 -10.5625 L 7.6875 -10.5625 Z M 7.6875 0 "/></g></g></g><g fill="#59371c" fill-opacity="1"><g transform="translate(248.493303, 176.93261)"><g><path d="M 15.40625 0 L 1.6875 0 L 1.6875 -12.078125 L 15.40625 -12.078125 L 15.40625 -10.578125 L 3.1875 -10.578125 L 3.1875 -6.78125 L 14 -6.78125 L 14 -5.28125 L 3.1875 -5.28125 L 3.1875 -1.5 L 15.40625 -1.5 Z M 15.40625 0 "/></g></g></g><g fill="#59371c" fill-opacity="1"><g transform="translate(265.162803, 176.93261)"><g><path d="M 16.15625 0 L 14.65625 0 L 14.65625 -3.296875 C 14.65625 -3.628906 14.53125 -3.914062 14.28125 -4.15625 C 14.039062 -4.40625 13.75 -4.53125 13.40625 -4.53125 L 3.1875 -4.53125 L 3.1875 0 L 1.6875 0 L 1.6875 -12.0625 L 13.40625 -12.0625 C 14.164062 -12.0625 14.8125 -11.789062 15.34375 -11.25 C 15.882812 -10.71875 16.15625 -10.078125 16.15625 -9.328125 L 16.15625 -7.28125 C 16.15625 -6.488281 15.867188 -5.820312 15.296875 -5.28125 C 15.867188 -4.738281 16.15625 -4.078125 16.15625 -3.296875 Z M 13.40625 -6.03125 C 13.75 -6.03125 14.039062 -6.148438 14.28125 -6.390625 C 14.53125 -6.640625 14.65625 -6.9375 14.65625 -7.28125 L 14.65625 -9.328125 C 14.65625 -9.671875 14.53125 -9.960938 14.28125 -10.203125 C 14.039062 -10.441406 13.75 -10.5625 13.40625 -10.5625 L 3.1875 -10.5625 L 3.1875 -6.03125 Z M 13.40625 -6.03125 "/></g></g></g><g fill="#59371c" fill-opacity="1"><g transform="translate(282.58121, 176.93261)"><g><path d="M 17.359375 0 L 15.546875 0 L 13.703125 -2.71875 L 3.890625 -2.71875 L 2.0625 0 L 0.25 0 L 8.40625 -12.0625 L 9.203125 -12.0625 Z M 12.703125 -4.21875 L 8.796875 -9.984375 L 4.921875 -4.21875 Z M 12.703125 -4.21875 "/></g></g></g><g fill="#59371c" fill-opacity="1"><g transform="translate(300.193155, 176.93261)"><g><path d="M 3.1875 0 L 1.6875 0 L 1.6875 -12.0625 L 13.40625 -12.0625 C 14.164062 -12.0625 14.8125 -11.789062 15.34375 -11.25 C 15.882812 -10.71875 16.15625 -10.078125 16.15625 -9.328125 L 16.15625 -7.28125 C 16.15625 -6.519531 15.882812 -5.867188 15.34375 -5.328125 C 14.8125 -4.796875 14.164062 -4.53125 13.40625 -4.53125 L 3.1875 -4.53125 Z M 13.40625 -6.03125 C 13.75 -6.03125 14.039062 -6.148438 14.28125 -6.390625 C 14.53125 -6.640625 14.65625 -6.9375 14.65625 -7.28125 L 14.65625 -9.328125 C 14.65625 -9.671875 14.53125 -9.960938 14.28125 -10.203125 C 14.039062 -10.441406 13.75 -10.5625 13.40625 -10.5625 L 3.1875 -10.5625 L 3.1875 -6.03125 Z M 13.40625 -6.03125 "/></g></g></g><g fill="#59371c" fill-opacity="1"><g transform="translate(317.611562, 176.93261)"><g><path d="M 3.1875 0 L 3.1875 -12.0625 L 1.6875 -12.0625 L 1.6875 0 Z M 3.1875 0 "/></g></g></g><g fill="#59371c" fill-opacity="1"><g transform="translate(322.475253, 176.93261)"><g><path d="M 17.359375 0 L 15.546875 0 L 13.703125 -2.71875 L 3.890625 -2.71875 L 2.0625 0 L 0.25 0 L 8.40625 -12.0625 L 9.203125 -12.0625 Z M 12.703125 -4.21875 L 8.796875 -9.984375 L 4.921875 -4.21875 Z M 12.703125 -4.21875 "/></g></g></g></svg>